<svg width="500" height="425" viewBox="0 0 500 425" fill="none" xmlns="http://www.w3.org/2000/svg">
<path d="M184.44 106.146C189.505 80.9628 208.639 29.612 266.601 31.7223C328.041 33.9592 361.143 90.8106 347.355 158.903" stroke="#DDB3E8" stroke-width="50"/>
<circle cx="252.674" cy="246.563" r="168.284" fill="url(#paint0_linear_44_2)" stroke="url(#paint1_linear_44_2)" stroke-width="20"/>
<g clip-path="url(#clip0_44_2)">
<path d="M96.8997 367.387C89.5045 367.387 81.7938 366.38 73.9713 364.398L73.8596 364.372C66.2869 362.331 60.3839 360.02 55.7825 357.295L49.794 353.747L49.8203 353.628L49.3207 353.332L49.347 353.194L48.9 352.93L48.9263 352.799L48.453 352.516L48.4727 352.404L47.9666 352.107L47.9929 351.976L47.5262 351.699L47.5459 351.581L47.0726 351.304L47.0989 351.159L46.6519 350.896L46.6782 350.771L46.1917 350.481L46.218 350.363L45.7119 350.067L45.7447 349.915L45.3043 349.652L45.3306 349.527L44.8573 349.244L44.877 349.125L44.3709 348.822L44.3972 348.697L43.9305 348.421L43.9567 348.296L43.4637 348.006L43.49 347.861L43.0496 347.598L43.0759 347.46L42.6026 347.177L42.6223 347.065L42.1162 346.762L42.1425 346.624L41.6889 346.354L41.7152 346.229L41.2485 345.952L41.2682 345.847L40.762 345.551L40.7883 345.425L40.315 345.142L40.3413 345.011L39.868 344.728L39.8943 344.589L39.4473 344.326L39.4736 344.194L38.9938 343.911L39.0135 343.799L38.5073 343.497L38.5336 343.365L38.0998 343.108L38.1261 342.983L37.6396 342.7L37.6659 342.581L37.1597 342.285L37.186 342.154L36.7062 341.87L36.7325 341.726L36.2658 341.449L36.292 341.311L35.845 341.048L35.8713 340.916L35.3981 340.633L35.4178 340.514L34.9182 340.218L34.9445 340.08L34.4975 339.817L34.5238 339.691L34.0045 339.382L34.0308 339.257L33.564 338.98L33.5903 338.849L33.1039 338.559L33.1302 338.434L32.6635 338.158L32.6898 338.019L32.2362 337.749L32.2559 337.631L31.7826 337.348L31.8089 337.223L31.3356 336.94L31.3619 336.815L30.8821 336.531L30.9084 336.406L30.3956 336.104L30.4219 335.985L29.9486 335.702L29.9749 335.577L29.5016 335.294L29.5279 335.175L29.0546 334.892L29.0809 334.747L28.6405 334.484L28.6668 334.352L28.1869 334.069L28.2132 333.944L27.7531 333.668L27.7794 333.529L27.2929 333.24L27.3192 333.115L26.8196 332.819L26.8459 332.7L26.3661 332.417L26.3924 332.285L25.9256 332.009L25.9519 331.877L25.4589 331.587L25.4852 331.449L25.0514 331.192L25.0777 331.067L24.5649 330.765L24.5912 330.626L24.1442 330.363L24.1705 330.238L23.6907 329.955L23.7104 329.843L23.2042 329.54L23.2305 329.422L22.7638 329.145L22.7901 329.02L22.3036 328.73L22.3299 328.585L21.8895 328.322L21.9158 328.197L21.4359 327.914L21.4622 327.789L20.9627 327.493L20.9889 327.361L20.5354 327.091L20.5617 326.966L20.0818 326.683L20.1015 326.578L19.6085 326.288L19.6348 326.156L19.1484 325.873L19.1747 325.742L18.7014 325.465L18.7277 325.327L18.2807 325.063L18.307 324.925L17.8205 324.636L17.8468 324.51L17.3472 324.214L17.3735 324.083L16.9331 323.819L16.9594 323.694L16.4861 323.411L16.5058 323.293L15.9931 322.99L16.0194 322.858L15.5461 322.575L15.5724 322.437L15.0925 322.154L15.1188 322.015L14.6652 321.745L14.6915 321.614L14.2248 321.331L14.2511 321.206L13.7515 320.909L13.7778 320.791L13.3308 320.528L13.3571 320.403L12.8838 320.119L12.9035 320.001L12.404 319.705L12.4303 319.58L11.9372 319.29L11.9635 319.165L11.4902 318.882L11.5165 318.737L11.0761 318.474L11.1024 318.355L10.6357 318.079L10.6554 317.96L10.1427 317.657L10.169 317.519L9.72197 317.256L9.74826 317.124L9.24868 316.828L9.27497 316.703L8.80825 316.426L21.8435 250.199L18.3793 246.446C12.7655 240.33 11.3785 238.836 11.0367 238.481L10.6751 238.138L10.2544 237.612C5.75815 231.976 3.49687 226.637 3.33253 221.298C2.89211 206.828 9.07119 194.36 21.7055 184.241C33.8204 174.287 49.5968 168.942 68.5219 168.362C69.4882 168.336 70.4479 168.316 71.3945 168.316C86.7042 168.316 99.562 172.22 109.613 179.916L109.725 180.002C110.402 180.535 111.072 181.101 111.808 181.746C112.446 182.286 113.064 182.839 113.649 183.392C113.78 183.51 114.352 184.03 114.523 184.188C114.596 184.254 114.891 184.524 115.01 184.63L115.069 184.682C115.187 184.788 115.319 184.906 115.444 185.025L115.509 185.084C115.634 185.196 115.779 185.321 115.91 185.452C115.91 185.452 118.5 187.809 118.612 187.915C118.612 187.915 118.947 188.217 119.066 188.329L119.118 188.375C119.25 188.494 119.381 188.612 119.513 188.738C119.513 188.738 119.854 189.047 119.973 189.152L120.479 189.613C120.591 189.718 120.735 189.844 120.867 189.969C120.867 189.969 121.629 190.66 121.754 190.778C121.754 190.778 122.089 191.081 122.208 191.193C122.208 191.193 122.543 191.496 122.661 191.608L122.714 191.654C122.839 191.766 122.983 191.897 123.115 192.023C123.115 192.023 123.411 192.286 123.529 192.404L123.608 192.47C123.733 192.582 123.871 192.707 124.002 192.832L124.955 193.695C125.08 193.807 125.212 193.925 125.337 194.044L125.416 194.116C125.547 194.235 125.678 194.353 125.817 194.478C125.817 194.478 126.572 195.163 126.711 195.288L126.776 195.347C126.888 195.446 127.019 195.564 127.144 195.683C127.23 195.762 127.69 196.183 127.69 196.183C127.808 196.289 127.946 196.414 128.071 196.532C128.071 196.532 128.847 197.236 128.959 197.342C128.965 197.342 129.3 197.645 129.412 197.757L129.471 197.809C129.59 197.915 129.728 198.04 129.859 198.165L131.72 199.863C131.844 199.975 131.976 200.094 132.107 200.219L132.153 200.258C132.278 200.37 132.423 200.495 132.554 200.627L132.607 200.673C132.732 200.785 132.87 200.91 133.001 201.035L133.501 201.489C133.626 201.601 133.764 201.726 133.902 201.858C133.902 201.858 134.244 202.161 134.355 202.273L134.415 202.325C134.533 202.431 134.658 202.549 134.783 202.661C134.868 202.74 137.103 204.774 137.103 204.774C137.241 204.893 137.36 205.005 137.478 205.117L137.557 205.189C137.688 205.308 137.826 205.433 137.958 205.558L138.457 206.012C138.576 206.117 138.714 206.242 138.845 206.367C138.845 206.367 140.068 207.48 140.199 207.599L140.252 207.645C140.37 207.75 140.502 207.868 140.627 207.987L140.692 208.046C140.824 208.165 140.968 208.296 141.106 208.421L141.159 208.474C141.271 208.573 141.402 208.691 141.527 208.81C141.613 208.889 142.06 209.29 142.06 209.29C142.178 209.396 142.309 209.514 142.434 209.633C142.526 209.712 142.96 210.107 142.96 210.107C143.079 210.212 143.203 210.324 143.328 210.442L143.407 210.515C143.539 210.633 143.677 210.758 143.808 210.884C143.808 210.884 144.111 211.153 144.235 211.272C144.321 211.351 144.768 211.759 144.768 211.759C144.893 211.871 145.031 211.996 145.162 212.121L145.221 212.174C145.346 212.286 145.484 212.411 145.622 212.536L145.682 212.589C145.8 212.694 145.931 212.819 146.069 212.938C146.069 212.938 146.845 213.642 146.97 213.754C146.97 213.754 147.739 214.452 147.871 214.57C147.871 214.57 148.206 214.873 148.324 214.985L149.29 215.867C149.402 215.966 149.54 216.091 149.672 216.216L150.184 216.683C150.309 216.795 150.441 216.914 150.572 217.039C150.572 217.039 150.908 217.342 151.026 217.454L151.065 217.487C151.19 217.598 151.328 217.724 151.46 217.842C151.545 217.921 151.992 218.329 151.992 218.329C152.111 218.435 152.235 218.546 152.36 218.665H152.367C157.54 217.223 163.016 216.407 168.676 216.236C169.504 216.209 170.313 216.196 171.101 216.196C182.598 216.196 190.986 218.81 196.725 224.188C196.876 224.327 197.027 224.458 197.172 224.596C197.323 224.728 197.474 224.866 197.619 225.005C197.777 225.143 197.928 225.281 198.079 225.419C198.23 225.551 198.381 225.689 198.526 225.828C198.677 225.959 198.828 226.097 198.973 226.236C199.124 226.367 199.269 226.506 199.413 226.637C199.571 226.776 199.722 226.914 199.88 227.059C200.031 227.19 200.176 227.329 200.327 227.46C200.478 227.598 200.629 227.73 200.781 227.875C200.932 228.013 201.083 228.145 201.234 228.283C201.385 228.415 201.537 228.553 201.681 228.691C201.832 228.83 201.984 228.968 202.135 229.106C202.26 229.218 202.385 229.336 202.51 229.448C203.969 227.598 205.658 225.874 207.558 224.294C215.052 218.053 224.485 214.715 235.594 214.379C236.291 214.36 236.968 214.346 237.645 214.346C247.952 214.346 256.853 216.808 264.097 221.674C265.714 222.76 267.258 223.971 268.678 225.281C268.81 225.4 268.974 225.551 269.138 225.702C269.257 225.808 269.415 225.953 269.572 226.097C269.691 226.203 269.835 226.334 269.98 226.473L270.032 226.519C270.157 226.631 270.315 226.776 270.479 226.927C270.611 227.039 270.769 227.19 270.926 227.335C271.058 227.454 271.229 227.605 271.393 227.756C271.512 227.862 272.281 228.566 272.281 228.566C272.412 228.678 272.57 228.83 272.728 228.974C272.859 229.093 273.017 229.231 273.168 229.376C273.313 229.508 273.457 229.639 273.602 229.771C273.753 229.903 274.075 230.199 274.075 230.199C274.233 230.344 274.391 230.482 274.548 230.627C274.673 230.732 274.831 230.883 274.995 231.035C275.114 231.14 275.272 231.285 275.429 231.43C275.574 231.562 275.719 231.693 275.863 231.825L275.889 231.851C276.041 231.989 276.192 232.128 276.343 232.266C276.343 232.266 277.401 233.227 277.493 233.313C288.044 219.587 301.75 212.378 318.269 211.871C318.808 211.858 319.34 211.845 319.866 211.845C330.489 211.845 339.376 215.13 346.298 221.608C346.699 221.963 347.317 222.523 347.712 222.898C347.948 223.109 348.185 223.319 348.421 223.537C348.573 223.675 348.73 223.813 348.882 223.951C349.256 224.287 352.346 227.105 352.497 227.243C352.622 227.355 352.786 227.5 352.944 227.651C353.062 227.756 353.214 227.895 353.371 228.04C353.634 228.277 355.048 229.56 355.192 229.698C355.31 229.804 355.468 229.942 355.626 230.093C355.784 230.232 355.935 230.37 356.086 230.515C356.211 230.627 356.369 230.772 356.527 230.916C356.711 231.081 357.243 231.568 357.421 231.726C357.914 231.009 358.42 230.298 358.939 229.6C368.517 216.716 379.777 209.988 392.405 209.6C392.845 209.587 393.286 209.58 393.713 209.58C398.558 209.58 402.922 210.429 406.755 212.115L408.405 203.774C409.128 200.008 408.786 197.994 408.372 196.967L404.507 187.401L454.623 169.607L454.505 170.212L455.07 170.015L454.952 170.62L455.523 170.416L455.399 171.035L455.977 170.831L455.852 171.456L456.431 171.252L456.306 171.865L456.878 171.661L456.753 172.273L457.331 172.069L457.213 172.674L457.758 172.483L457.64 173.096L458.238 172.885L458.113 173.504L458.692 173.3L458.574 173.905L459.145 173.701L459.021 174.327L459.592 174.123L459.474 174.728L460.046 174.524L459.921 175.143L460.493 174.939L460.375 175.545L460.947 175.341L460.828 175.94L461.4 175.736L461.275 176.354L461.841 176.15L461.716 176.769L462.294 176.565L462.169 177.184L462.741 176.98L462.616 177.599L463.188 177.395L463.063 178.007L463.635 177.803L463.517 178.408L464.089 178.204L463.97 178.81L464.536 178.606L464.417 179.212L464.996 179.007L464.871 179.639L465.443 179.435L465.318 180.048L465.896 179.844L465.778 180.449L466.35 180.245L466.225 180.864L466.797 180.66L466.672 181.272L467.244 181.068L467.119 181.68L467.691 181.476L467.566 182.088L468.131 181.884L468.013 182.49L468.585 182.286L468.46 182.911L469.039 182.707L468.914 183.32L469.486 183.115L469.367 183.721L469.946 183.517L469.827 184.129L470.393 183.932L470.274 184.544L470.853 184.34L470.728 184.952L471.293 184.748L471.168 185.367L471.747 185.163L471.628 185.768L472.2 185.564L472.076 186.183L472.647 185.979L472.529 186.585L473.068 186.394L472.95 186.993L473.541 186.782L473.416 187.401L473.995 187.197L473.87 187.822L474.449 187.618L474.324 188.231L474.896 188.027L474.771 188.639L475.349 188.435L475.231 189.04L475.803 188.836L475.678 189.455L476.25 189.251L476.131 189.857L476.684 189.659L476.565 190.271L477.15 190.061L477.025 190.68L477.604 190.476L477.479 191.094L478.051 190.89L477.932 191.496L478.504 191.292L478.379 191.911L478.958 191.707L478.84 192.312L479.412 192.108L479.287 192.72L479.852 192.516L479.727 193.129L480.279 192.931L480.161 193.543L480.746 193.333L480.621 193.951L481.2 193.747L481.075 194.366L481.64 194.169L481.522 194.774L482.1 194.57L481.982 195.169L482.527 194.978L482.409 195.584L483.007 195.373L482.882 196.012L483.454 195.808L483.336 196.414L483.888 196.216L483.77 196.828L484.361 196.618L484.236 197.236L484.808 197.032L484.683 197.645L485.255 197.441L485.13 198.053L485.709 197.849L485.591 198.454L486.143 198.257L486.024 198.869L486.61 198.658L486.485 199.271L487.057 199.067L486.938 199.679L487.51 199.475L487.385 200.094L487.964 199.89L487.839 200.508L488.411 200.304L488.292 200.903L488.871 200.699L488.746 201.318L489.318 201.114L489.193 201.726L489.745 201.529L489.627 202.141L490.212 201.93L490.087 202.549L490.659 202.345L490.54 202.951L491.112 202.747L490.994 203.359L491.572 203.155L491.448 203.767L492.013 203.57L491.895 204.182L492.48 203.971L492.355 204.597L492.927 204.392L492.808 204.992L493.361 204.794L493.236 205.413L493.821 205.202L493.696 205.821L494.274 205.617L494.156 206.223L494.728 206.019L494.603 206.644L495.168 206.44L495.05 207.046L495.622 206.841L468.145 345.109L464.976 347.381C455.648 354.082 444.914 357.664 433.082 358.026C432.431 358.046 431.787 358.052 431.155 358.052C418.797 358.052 408.569 354.333 400.753 346.999C400.674 346.926 399.392 345.761 399.392 345.761C399.228 345.616 399.083 345.478 398.932 345.34L397.111 343.687C396.98 343.569 396.829 343.437 396.684 343.299C396.684 343.299 396.388 343.036 396.257 342.911L396.224 342.884C396.079 342.753 395.928 342.621 395.784 342.483C395.784 342.483 395.468 342.193 395.336 342.075C395.336 342.075 395.021 341.791 394.883 341.666C394.883 341.666 394.554 341.37 394.429 341.252C394.429 341.252 394.114 340.969 393.982 340.85C393.982 340.85 393.213 340.152 393.075 340.027L392.602 339.593C392.47 339.474 392.319 339.343 392.175 339.204L390.781 337.934C390.65 337.815 390.512 337.69 390.373 337.558L390.104 337.315C388.678 339.369 387.028 341.429 385.187 343.464C375.721 354.017 364.007 359.579 350.387 359.994C349.789 360.014 349.197 360.021 348.612 360.021C337.799 360.021 328.504 356.933 320.99 350.85C320.287 350.297 319.557 349.672 318.795 348.974C318.696 348.888 318.558 348.763 318.42 348.638L317.894 348.157C317.776 348.059 317.631 347.92 317.487 347.789L316.994 347.335C316.869 347.223 316.711 347.084 316.56 346.94C316.422 346.814 313.556 344.208 313.404 344.063C313.266 343.938 313.109 343.799 312.957 343.655C312.813 343.529 312.044 342.818 312.044 342.818C311.919 342.707 311.768 342.568 311.616 342.43L310.69 341.587C310.571 341.482 310.42 341.344 310.269 341.206L309.828 340.804C308.027 343.892 305.727 346.814 302.946 349.533C294.63 357.565 284.159 361.818 271.788 362.2C271.051 362.219 270.328 362.232 269.605 362.232C259.508 362.232 250.233 360.027 242.029 355.682C239.019 354.082 236.37 352.265 234.154 350.271L235.173 353.207C235.85 355.149 235.554 357.321 234.391 359.02C233.227 360.718 231.308 361.765 229.25 361.824L194.72 362.878V362.621C190.677 364.023 186.372 364.807 181.869 364.938C181.284 364.958 180.705 364.965 180.14 364.965C170.378 364.965 162.411 362.331 156.462 357.13C156.304 356.992 156.147 356.847 155.989 356.703C155.825 356.558 155.68 356.426 155.535 356.288C155.371 356.143 155.233 356.011 155.095 355.886C154.931 355.741 154.779 355.603 154.635 355.465C154.477 355.327 154.326 355.188 154.181 355.057C154.004 354.899 153.859 354.767 153.714 354.629C153.603 354.53 153.438 354.379 153.274 354.227L153.241 354.201C153.143 354.115 152.998 353.984 152.847 353.839C152.682 353.694 152.531 353.556 152.38 353.411C152.209 353.259 152.071 353.134 151.933 353.003C151.762 352.851 151.617 352.72 151.479 352.588C151.361 352.483 151.197 352.331 151.032 352.18C150.894 352.055 150.737 351.917 150.579 351.765L150.546 351.732C150.447 351.647 150.29 351.502 150.125 351.344C150 351.232 149.849 351.094 149.691 350.949L149.665 350.929C149.553 350.83 149.396 350.685 149.238 350.534C149.093 350.409 148.942 350.271 148.791 350.126C148.613 349.974 148.475 349.843 148.337 349.711C148.193 349.579 148.035 349.441 147.884 349.296C147.739 349.171 147.595 349.04 147.456 348.908L147.404 348.855C147.286 348.75 147.141 348.618 146.99 348.48C146.819 348.329 146.681 348.204 146.543 348.072C146.53 348.065 146.431 347.973 146.392 347.934C146.083 348.25 145.774 348.566 145.465 348.875C133.692 360.501 118.198 366.676 99.3976 367.249C98.5628 367.275 97.728 367.288 96.8865 367.288L96.8997 367.387Z" fill="#326295"/>
<path d="M71.3946 171.608C85.968 171.608 98.1553 175.282 107.621 182.53L107.707 182.596C108.311 183.076 108.949 183.61 109.633 184.215C110.283 184.768 110.868 185.288 111.414 185.808C111.414 185.808 112.19 186.513 112.301 186.618C112.301 186.618 112.637 186.921 112.755 187.033L112.854 187.118C112.972 187.224 113.09 187.336 113.209 187.441L113.301 187.527C113.419 187.632 113.544 187.744 113.662 187.856C113.662 187.856 113.997 188.159 114.116 188.271C114.116 188.271 114.905 188.982 115.01 189.087C115.01 189.087 115.352 189.39 115.457 189.495C115.457 189.495 115.792 189.798 115.91 189.91C115.91 189.91 116.252 190.213 116.364 190.325C116.364 190.325 116.699 190.627 116.811 190.733L116.909 190.818C117.028 190.924 117.146 191.036 117.264 191.141C117.264 191.141 117.606 191.45 117.718 191.556L118.264 192.049C118.382 192.155 118.5 192.267 118.619 192.372C118.619 192.372 119.401 193.083 119.513 193.188C119.513 193.188 119.848 193.491 119.966 193.603C119.966 193.603 120.301 193.906 120.413 194.011L120.512 194.097C120.63 194.202 120.755 194.314 120.867 194.426L120.965 194.511C121.084 194.617 121.202 194.722 121.314 194.827L121.412 194.92C121.531 195.025 121.649 195.13 121.767 195.242C121.767 195.242 122.103 195.545 122.221 195.657C122.221 195.657 122.556 195.96 122.668 196.065L122.766 196.157C122.885 196.263 123.003 196.375 123.121 196.48L123.227 196.572C123.345 196.677 123.463 196.783 123.575 196.888L124.114 197.382C124.232 197.487 124.357 197.599 124.469 197.711L124.568 197.803C124.686 197.908 124.804 198.014 124.916 198.126C124.916 198.126 125.258 198.429 125.37 198.54L125.481 198.639C125.593 198.738 125.711 198.843 125.817 198.949L125.922 199.047C126.033 199.153 126.152 199.251 126.264 199.357C126.264 199.357 126.599 199.66 126.717 199.765C126.717 199.765 127.052 200.068 127.171 200.173L127.269 200.265C127.388 200.371 127.506 200.476 127.618 200.581C127.618 200.581 128.854 201.707 128.972 201.812L129.524 202.313C129.642 202.418 129.754 202.523 129.866 202.629L129.958 202.714C130.076 202.82 130.201 202.931 130.319 203.043L130.418 203.136C130.536 203.241 130.655 203.353 130.773 203.458C130.773 203.458 131.108 203.761 131.227 203.866L131.319 203.952C131.437 204.057 131.562 204.169 131.68 204.281C131.68 204.281 132.015 204.584 132.134 204.689L132.239 204.781C132.357 204.887 132.476 204.992 132.587 205.097C132.587 205.097 132.923 205.4 133.034 205.506L133.139 205.598C133.258 205.703 133.37 205.808 133.488 205.914C133.488 205.914 133.823 206.216 133.941 206.328C133.941 206.328 134.283 206.638 134.395 206.743C134.395 206.743 134.73 207.046 134.842 207.151L134.941 207.237C135.059 207.342 135.177 207.448 135.296 207.559L135.401 207.652C135.519 207.757 135.637 207.862 135.756 207.974L136.301 208.468C136.42 208.573 136.538 208.679 136.656 208.791C136.656 208.791 136.992 209.093 137.103 209.199C137.103 209.199 137.438 209.502 137.557 209.607L137.662 209.706C137.78 209.811 137.892 209.916 138.004 210.022L138.102 210.107C138.221 210.213 138.339 210.318 138.457 210.43L138.549 210.509C138.674 210.621 138.793 210.726 138.911 210.838L139.01 210.93C139.128 211.035 139.246 211.141 139.358 211.253C139.358 211.253 139.693 211.556 139.812 211.667L139.91 211.76C140.028 211.865 140.14 211.97 140.259 212.076C140.259 212.076 140.594 212.378 140.706 212.484L140.804 212.576C140.922 212.681 141.041 212.787 141.153 212.892L141.258 212.984C141.376 213.089 141.494 213.195 141.613 213.307L141.711 213.399C141.83 213.504 141.948 213.609 142.06 213.715C142.06 213.715 142.395 214.018 142.513 214.123L142.618 214.215C142.737 214.32 142.855 214.426 142.967 214.531L143.072 214.623C143.19 214.729 143.309 214.834 143.427 214.946L143.532 215.038C143.65 215.143 143.762 215.249 143.874 215.354C143.874 215.354 144.663 216.065 144.775 216.177C144.775 216.177 145.557 216.888 145.675 216.993C145.675 216.993 146.01 217.296 146.129 217.401L147.128 218.317C147.246 218.422 147.358 218.527 147.476 218.633C147.476 218.633 147.811 218.935 147.93 219.041L148.028 219.133C148.147 219.238 148.265 219.344 148.377 219.455C148.377 219.455 148.712 219.758 148.824 219.864L148.909 219.943C149.034 220.054 149.159 220.166 149.277 220.278C149.277 220.278 149.613 220.581 149.724 220.686L149.83 220.779C149.948 220.884 150.066 220.989 150.178 221.095L150.283 221.187C150.401 221.292 150.513 221.397 150.632 221.503L150.737 221.595C150.921 221.76 151.111 221.931 151.282 222.102C151.499 222.161 151.657 222.201 151.874 222.26C157.205 220.621 162.885 219.699 168.82 219.521C169.616 219.495 170.391 219.488 171.147 219.488C181.79 219.488 189.455 221.825 194.562 226.625C194.713 226.756 194.865 226.894 195.009 227.033C195.16 227.164 195.312 227.303 195.456 227.441C195.607 227.579 195.765 227.717 195.91 227.856C196.061 227.994 196.212 228.126 196.363 228.264C196.515 228.395 196.666 228.534 196.81 228.672C196.962 228.804 197.113 228.942 197.257 229.08C197.415 229.218 197.566 229.357 197.711 229.495C197.862 229.627 198.013 229.765 198.158 229.903C198.309 230.041 198.46 230.173 198.611 230.311C198.763 230.449 198.914 230.581 199.065 230.719C199.216 230.851 199.367 230.989 199.512 231.128C199.663 231.266 199.814 231.404 199.966 231.542C200.117 231.674 200.268 231.812 200.413 231.95C200.564 232.089 200.715 232.22 200.866 232.359C201.017 232.49 201.169 232.628 201.313 232.767C201.464 232.905 201.616 233.037 201.767 233.181C202.063 233.445 202.352 233.715 202.628 233.985C202.641 233.985 202.654 233.991 202.667 233.998L203.423 233.906C205.067 231.305 207.164 228.935 209.708 226.822C216.623 221.062 225.385 217.981 235.745 217.665C236.403 217.645 237.053 217.632 237.698 217.632C247.347 217.632 255.63 219.91 262.315 224.399C263.794 225.394 265.208 226.506 266.509 227.698C266.667 227.836 266.818 227.974 266.969 228.112C267.114 228.244 267.259 228.369 267.397 228.501L267.41 228.514C267.548 228.632 267.679 228.758 267.811 228.876L267.863 228.922C268.008 229.054 268.153 229.185 268.297 229.317L268.31 229.33C268.461 229.462 268.606 229.594 268.751 229.732H268.764C268.915 229.877 269.066 230.015 269.211 230.153C269.362 230.285 269.507 230.423 269.658 230.561L270.118 230.983C270.269 231.121 270.42 231.253 270.565 231.391C270.716 231.529 270.867 231.661 271.019 231.799C271.157 231.924 271.295 232.049 271.433 232.174L271.466 232.207C271.61 232.339 271.755 232.471 271.893 232.596L271.913 232.609C272.07 232.747 272.222 232.885 272.373 233.023C272.524 233.155 272.675 233.293 272.82 233.432C272.971 233.57 273.122 233.702 273.273 233.84C273.424 233.971 273.569 234.11 273.714 234.241H273.72C273.871 234.38 274.016 234.518 274.161 234.65L275.068 235.479C275.212 235.611 275.357 235.742 275.502 235.874L275.521 235.887C275.666 236.012 275.804 236.144 275.942 236.269L275.975 236.295C276.12 236.427 276.271 236.559 276.415 236.69L276.429 236.704C276.58 236.842 276.731 236.98 276.882 237.118C277.014 237.237 277.329 237.526 277.329 237.526C277.467 237.652 277.605 237.777 277.743 237.902C277.743 237.902 277.973 238.106 278.065 238.198C278.479 237.579 278.907 236.967 279.341 236.361L279.387 236.295C289.398 222.734 302.532 215.611 318.42 215.124C318.926 215.11 319.426 215.104 319.919 215.104C329.694 215.104 337.845 218.099 344.136 224.011C344.53 224.36 345.168 224.939 345.549 225.301C345.786 225.512 346.022 225.723 346.259 225.94C346.41 226.078 346.561 226.21 346.712 226.348C346.864 226.48 350.163 229.488 350.315 229.627C350.466 229.758 350.617 229.896 350.762 230.035C350.913 230.173 351.064 230.305 351.209 230.443C351.36 230.581 352.865 231.944 353.016 232.089C353.168 232.227 353.319 232.359 353.463 232.497C353.615 232.628 353.766 232.767 353.91 232.905C354.062 233.043 354.213 233.181 354.364 233.32C354.515 233.451 355.113 233.998 355.265 234.136C355.416 234.268 355.567 234.406 355.712 234.544C355.863 234.682 356.467 235.229 356.619 235.374C356.77 235.505 357.368 236.052 357.519 236.19C357.67 236.322 357.822 236.46 357.966 236.598C358.019 236.644 358.078 236.697 358.131 236.743C359.209 234.959 360.379 233.221 361.634 231.536C370.581 219.495 380.987 213.214 392.569 212.859C392.977 212.846 393.378 212.839 393.779 212.839C399.82 212.839 405 214.281 409.167 217.132L411.691 204.38C412.395 200.719 412.329 197.79 411.481 195.696L408.904 189.317L450.33 174.61L450.212 175.223L450.784 175.018L450.666 175.631L451.238 175.427L451.113 176.045L451.685 175.841L451.56 176.46L452.132 176.256L452.007 176.868L452.579 176.664L452.454 177.277L453.026 177.072L452.907 177.678L453.466 177.481L453.348 178.093L453.933 177.882L453.808 178.501L454.38 178.297L454.261 178.903L454.833 178.699L454.708 179.317L455.28 179.113L455.155 179.726L455.727 179.521L455.602 180.134L456.174 179.93L456.049 180.542L456.621 180.338L456.503 180.943L457.075 180.739L456.95 181.358L457.522 181.154L457.404 181.766L457.975 181.562L457.851 182.181L458.422 181.977L458.298 182.596L458.869 182.392L458.745 183.004L459.316 182.8L459.198 183.406L459.77 183.201L459.645 183.814L460.217 183.61L460.099 184.222L460.671 184.018L460.546 184.643L461.118 184.439L460.993 185.051L461.565 184.847L461.446 185.453L462.018 185.249L461.893 185.868L462.465 185.664L462.34 186.276L462.912 186.072L462.787 186.684L463.359 186.48L463.234 187.092L463.806 186.888L463.688 187.494L464.26 187.29L464.135 187.908L464.707 187.704L464.582 188.317L465.154 188.113L465.035 188.718L465.607 188.514L465.482 189.126L466.054 188.922L465.936 189.535L466.508 189.33L466.383 189.943L466.955 189.739L466.83 190.357L467.402 190.153L467.283 190.766L467.855 190.562L467.73 191.18L468.302 190.976L468.184 191.582L468.743 191.384L468.625 191.99L469.21 191.779L469.085 192.398L469.657 192.194L469.532 192.813L470.104 192.609L469.979 193.221L470.551 193.017L470.426 193.629L470.998 193.425L470.879 194.031L471.451 193.827L471.326 194.446L471.898 194.242L471.78 194.854L472.339 194.656L472.22 195.269L472.805 195.064L472.68 195.683L473.252 195.479L473.127 196.091L473.699 195.887L473.574 196.5L474.146 196.296L474.021 196.908L474.593 196.704L474.475 197.316L475.047 197.112L474.922 197.724L475.494 197.52L475.369 198.132L475.928 197.935L475.809 198.547L476.394 198.343L476.269 198.962L476.841 198.758L476.716 199.37L477.288 199.166L477.17 199.778L477.742 199.574L477.624 200.18L478.182 199.982L478.064 200.594L478.649 200.384L478.524 201.009L479.096 200.805L478.978 201.411L479.536 201.213L479.418 201.825L480.003 201.621L479.878 202.24L480.45 202.036L480.325 202.648L480.897 202.444L480.772 203.057L481.344 202.852L481.226 203.465L481.785 203.267L481.666 203.879L482.251 203.675L482.126 204.294L482.698 204.09L482.58 204.696L483.152 204.492L483.027 205.111L483.599 204.906L483.474 205.519L484.046 205.315L483.928 205.92L484.499 205.716L484.375 206.328L484.946 206.124L484.822 206.737L485.38 206.539L485.262 207.151L485.847 206.947L485.722 207.566L486.294 207.362L486.176 207.968L486.748 207.764L486.629 208.376L487.201 208.172L487.076 208.784L487.648 208.58L487.53 209.192L488.108 208.988L487.983 209.607L488.555 209.403L488.437 210.008L488.996 209.811L488.871 210.423L489.456 210.219L489.331 210.838L489.903 210.634L489.785 211.246L490.356 211.042L490.232 211.661L490.803 211.457L490.679 212.069L491.25 211.865L465.154 343.181L463.044 344.695C454.255 351.009 444.132 354.379 432.963 354.721C432.345 354.741 431.741 354.748 431.136 354.748C419.626 354.748 410.147 351.324 402.962 344.563C402.962 344.563 402.646 344.28 402.521 344.162C402.521 344.162 401.739 343.458 401.621 343.339L401.562 343.286C401.43 343.168 401.292 343.049 401.167 342.924C401.167 342.924 400.392 342.22 400.267 342.108L399.314 341.239C399.182 341.12 399.051 341.002 398.919 340.877L398.84 340.811C398.715 340.699 398.59 340.587 398.466 340.469L398.406 340.416C398.275 340.298 398.143 340.179 398.012 340.061C398.012 340.061 397.69 339.771 397.565 339.652C397.565 339.652 397.243 339.363 397.111 339.238C397.111 339.238 396.783 338.941 396.658 338.829C396.658 338.829 396.336 338.54 396.211 338.428C396.211 338.428 395.435 337.723 395.304 337.605L394.798 337.144C394.666 337.026 394.535 336.907 394.403 336.782C394.403 336.782 394.074 336.486 393.95 336.374C393.95 336.374 393.174 335.67 393.049 335.551L392.97 335.479C392.845 335.367 392.72 335.255 392.602 335.143L392.096 334.682C391.964 334.564 391.826 334.445 391.695 334.32C391.695 334.32 391.373 334.024 391.248 333.912L391.182 333.853C391.051 333.734 390.926 333.616 390.794 333.497L390.715 333.431C390.59 333.319 390.466 333.207 390.341 333.089L390.262 333.016C390.137 332.905 390.012 332.793 389.887 332.674L389.808 332.602C389.683 332.49 389.558 332.378 389.434 332.259L389.407 332.233C387.678 335.215 385.45 338.224 382.722 341.226C373.874 351.087 362.942 356.295 350.256 356.683C349.69 356.703 349.131 356.71 348.579 356.71C338.535 356.71 329.937 353.872 323.028 348.27C322.358 347.743 321.687 347.17 320.984 346.525C320.846 346.4 320.708 346.275 320.57 346.143L320.083 345.702C319.952 345.584 319.82 345.465 319.689 345.347L319.183 344.886C319.038 344.761 318.9 344.629 318.762 344.504L318.729 344.478C318.591 344.353 318.453 344.228 318.315 344.096L316.027 342.009C315.889 341.884 315.745 341.752 315.607 341.627L315.58 341.601C315.442 341.476 315.298 341.344 315.16 341.219L315.127 341.186C314.989 341.068 314.857 340.943 314.719 340.818L314.233 340.37C314.095 340.245 313.957 340.12 313.819 339.995L312.879 339.139C312.741 339.014 312.603 338.889 312.464 338.764L311.531 337.908C311.393 337.789 311.262 337.664 311.123 337.539L310.63 337.092C310.499 336.973 310.361 336.855 310.229 336.729C310.229 336.729 308.823 335.446 308.816 335.446C307.041 339.646 304.307 343.569 300.626 347.17C292.921 354.61 283.193 358.546 271.669 358.895C270.973 358.915 270.276 358.928 269.586 358.928C260.028 358.928 251.272 356.854 243.548 352.76C240.675 351.239 238.184 349.508 236.133 347.625C235.975 347.486 235.824 347.348 235.673 347.21C235.522 347.072 235.37 346.94 235.226 346.802C235.075 346.664 234.923 346.525 234.772 346.394C234.621 346.255 234.47 346.124 234.319 345.985C234.168 345.847 234.016 345.716 233.872 345.577C233.721 345.439 233.569 345.307 233.425 345.169C233.274 345.031 233.122 344.893 232.971 344.754C232.82 344.623 232.675 344.491 232.531 344.353H232.524C232.373 344.208 232.222 344.07 232.071 343.932L231.624 343.523C231.472 343.392 231.334 343.26 231.19 343.128L231.17 343.115C231.019 342.977 230.868 342.839 230.716 342.707C230.565 342.569 230.414 342.437 230.269 342.299C230.112 342.161 229.96 342.022 229.809 341.884C229.803 341.884 229.796 341.871 229.79 341.864C229.481 344.906 229.73 347.605 230.539 349.929L232.057 354.287C232.767 356.328 231.295 358.467 229.139 358.533L197.974 359.481V359.06L197.514 359.073V358.652L197.06 358.665V358.243L196.777 358.25C192.169 360.344 187.141 361.489 181.757 361.647C181.205 361.667 180.659 361.673 180.127 361.673C171.18 361.673 163.943 359.31 158.605 354.649C158.461 354.524 158.316 354.392 158.178 354.254L158.158 354.234C158.014 354.109 157.869 353.978 157.731 353.839C157.56 353.688 157.415 353.556 157.277 353.425C157.113 353.28 156.975 353.148 156.837 353.016C156.824 353.003 156.811 352.99 156.797 352.983C156.653 352.858 156.521 352.733 156.383 352.602C156.206 352.444 156.068 352.319 155.93 352.193C155.91 352.174 155.89 352.154 155.864 352.134C155.765 352.049 155.621 351.917 155.476 351.779C155.456 351.766 155.437 351.746 155.424 351.733C155.312 351.634 155.174 351.502 155.036 351.377C155.036 351.377 155.023 351.364 155.016 351.364C154.865 351.232 154.72 351.094 154.576 350.962C154.398 350.811 154.267 350.679 154.129 350.554C153.958 350.403 153.813 350.271 153.675 350.14C153.655 350.126 153.636 350.107 153.622 350.093C153.517 350.001 153.373 349.87 153.228 349.731C153.208 349.712 153.189 349.692 153.162 349.672C153.064 349.587 152.919 349.455 152.781 349.323C152.761 349.303 152.742 349.29 152.722 349.271C152.61 349.172 152.472 349.04 152.327 348.908C152.327 348.908 152.288 348.876 152.268 348.856C152.157 348.764 152.019 348.632 151.88 348.5C151.88 348.5 151.828 348.454 151.808 348.441C151.71 348.355 151.565 348.224 151.42 348.086L151.401 348.066C151.256 347.941 151.111 347.809 150.973 347.677C150.796 347.519 150.658 347.388 150.52 347.263L150.5 347.249C150.349 347.118 150.211 346.986 150.066 346.854C150.053 346.841 150.04 346.835 150.033 346.822C149.895 346.703 149.757 346.578 149.626 346.453C149.606 346.433 149.586 346.42 149.567 346.4C149.455 346.301 149.317 346.17 149.172 346.038C148.995 345.887 148.857 345.755 148.719 345.623C148.699 345.61 148.686 345.59 148.666 345.577C148.561 345.485 148.416 345.353 148.272 345.215C148.265 345.215 148.258 345.202 148.252 345.195C148.107 345.07 147.963 344.939 147.825 344.8C147.647 344.642 147.516 344.517 147.378 344.392C147.213 344.247 147.069 344.116 146.931 343.991L146.898 343.964C146.753 343.839 146.615 343.708 146.477 343.576C146.477 343.576 146.47 343.569 146.464 343.563C146.359 343.471 146.26 343.379 146.162 343.286C145.202 344.399 144.189 345.485 143.131 346.538C131.969 357.559 117.225 363.411 99.2793 363.958C98.4774 363.984 97.6754 363.997 96.8734 363.997C89.7543 363.997 82.3066 363.023 74.7536 361.114L74.6616 361.087C67.411 359.139 61.771 356.94 57.4325 354.366L53.4423 352.003L53.4686 351.877L52.9756 351.588L53.0019 351.45L52.5483 351.18L52.5746 351.048L52.1013 350.765L52.1276 350.646L51.6346 350.35L51.6609 350.219L51.1876 349.935L51.2139 349.817L50.7406 349.54L50.7669 349.402L50.3068 349.132L50.3331 349.007L49.8598 348.724L49.8861 348.606L49.3931 348.316L49.4194 348.171L48.9658 347.901L48.9921 347.77L48.5188 347.486L48.5451 347.368L48.0521 347.078L48.0784 346.947L47.6051 346.664L47.6314 346.538L47.1515 346.255L47.1778 346.117L46.7177 345.847L46.7439 345.716L46.2707 345.432L46.2969 345.314L45.8039 345.018L45.8302 344.879L45.3701 344.61L45.3964 344.485L44.9231 344.201L44.9428 344.09L44.4498 343.8L44.4761 343.668L44.0028 343.385L44.0291 343.253L43.5492 342.97L43.5755 342.832L43.1219 342.562L43.1482 342.431L42.6684 342.147L42.6947 342.029L42.2017 341.739L42.228 341.608L41.7744 341.338L41.8007 341.213L41.3274 340.93L41.3537 340.804L40.8607 340.515L40.887 340.383L40.4137 340.1L40.44 339.962L39.9667 339.679L39.993 339.54L39.5394 339.271L39.5657 339.139L39.0924 338.856L39.1187 338.737L38.6257 338.448L38.652 338.309L38.1984 338.039L38.2247 337.914L37.7317 337.618L37.758 337.493L37.2847 337.21L37.311 337.085L36.8311 336.802L36.8574 336.677L36.3841 336.394L36.4104 336.255L35.9503 335.986L35.9766 335.867L35.5033 335.584L35.5296 335.452L35.0563 335.169L35.0826 335.044L34.6093 334.761L34.6356 334.629L34.1425 334.333L34.1688 334.215L33.689 333.932L33.7153 333.806L33.242 333.523L33.2683 333.398L32.795 333.122L32.8213 332.984L32.3677 332.714L32.394 332.582L31.9207 332.299L31.947 332.174L31.4737 331.891L31.5 331.759L31.0201 331.476L31.0464 331.344L30.5534 331.055L30.5797 330.936L30.0998 330.653L30.1261 330.521L29.6529 330.238L29.6791 330.107L29.1993 329.824L29.2256 329.685L28.772 329.415L28.7983 329.29L28.3053 328.994L28.3316 328.862L27.878 328.593L27.9043 328.467L27.4244 328.184L27.4507 328.066L26.9577 327.77L26.984 327.651L26.5107 327.368L26.537 327.243L26.0637 326.96L26.09 326.822L25.6364 326.552L25.6627 326.427L25.1894 326.144L25.2157 326.012L24.7227 325.716L24.749 325.591L24.2954 325.321L24.3217 325.189L23.8485 324.906L23.8682 324.794L23.3752 324.504L23.4015 324.379L22.9282 324.103L22.9545 323.971L22.4746 323.688L22.5009 323.55L22.0473 323.28L22.0736 323.142L21.5937 322.859L21.62 322.733L21.127 322.444L21.1533 322.319L20.6932 322.049L20.7195 321.924L20.2462 321.641L20.2725 321.522L19.7795 321.232L19.8057 321.101L19.3325 320.818L19.3588 320.679L18.8789 320.396L18.9052 320.258L18.445 319.982L18.4713 319.857L17.998 319.573L18.0243 319.448L17.5313 319.152L17.5576 319.034L17.104 318.764L17.1303 318.639L16.657 318.356L16.6833 318.237L16.1903 317.947L16.2166 317.822L15.7368 317.539L15.763 317.408L15.2898 317.124L15.3161 316.986L14.8559 316.716L14.8822 316.598L14.4089 316.315L14.4352 316.196L13.9422 315.907L13.9685 315.768L13.5083 315.498L13.5346 315.367L13.0416 315.077L13.0679 314.952L12.5946 314.676L25.4984 249.093L20.897 244.11C15.0531 237.737 13.745 236.341 13.4623 236.045L13.206 235.802L12.9233 235.453C8.88717 230.39 6.85596 225.696 6.71792 221.095C6.31036 207.711 12.0753 196.144 23.8616 186.71C35.4572 177.204 50.5631 172.109 68.752 171.556C69.6855 171.529 70.6123 171.516 71.526 171.516M459.007 164.551L448.102 168.422L406.676 183.129L400.201 185.427L402.778 191.806L405.355 198.185C405.414 198.323 405.88 199.633 405.203 203.149L404.303 207.704C401.049 206.756 397.526 206.276 393.746 206.276C393.279 206.276 392.812 206.282 392.339 206.295C378.923 206.704 367.018 213.603 356.941 226.802C356.474 226.374 355.83 225.789 355.613 225.591C355.462 225.453 355.304 225.308 355.153 225.17C355.002 225.025 354.844 224.887 354.686 224.748C354.226 224.327 351.583 221.924 351.117 221.496C350.965 221.351 350.808 221.213 350.65 221.068C350.42 220.851 350.183 220.64 349.94 220.43C349.519 220.035 348.941 219.508 348.527 219.139C340.987 212.095 331.344 208.521 319.879 208.521C319.314 208.521 318.742 208.527 318.183 208.547C309.243 208.817 300.948 210.996 293.533 215.018C287.492 218.297 281.996 222.819 277.145 228.501C277.014 228.382 276.889 228.264 276.757 228.145C276.606 228.007 276.455 227.869 276.304 227.731L276.284 227.711C276.139 227.579 275.995 227.447 275.844 227.309C275.699 227.178 275.548 227.039 275.397 226.901C275.245 226.763 275.094 226.625 274.943 226.486C274.792 226.348 274.634 226.203 274.483 226.065L274.062 225.683C273.911 225.538 273.753 225.4 273.595 225.262C273.444 225.124 273.293 224.985 273.142 224.847C272.997 224.709 272.846 224.577 272.695 224.439C272.544 224.301 272.386 224.156 272.235 224.018L272.215 223.998C272.077 223.873 271.932 223.735 271.781 223.603C271.636 223.471 271.492 223.34 271.347 223.208C271.189 223.063 271.038 222.925 270.881 222.78C269.349 221.378 267.686 220.074 265.95 218.902C258.154 213.669 248.642 211.016 237.665 211.016C236.961 211.016 236.238 211.029 235.515 211.049C223.657 211.411 213.546 215.005 205.474 221.727C204.33 222.675 203.259 223.675 202.26 224.722C202.214 224.676 202.161 224.636 202.115 224.59C201.964 224.446 201.806 224.307 201.648 224.162C201.504 224.024 201.353 223.893 201.201 223.761C201.057 223.623 200.906 223.491 200.754 223.353C200.61 223.214 200.459 223.083 200.307 222.945C200.156 222.806 200.005 222.668 199.847 222.53C199.703 222.392 199.551 222.253 199.4 222.122C199.256 221.983 199.104 221.845 198.953 221.713C192.57 215.762 183.466 212.866 171.115 212.866C170.293 212.866 169.438 212.879 168.59 212.905C163.305 213.063 158.171 213.767 153.267 214.999C153.267 214.999 153.267 214.999 153.261 214.992L153.228 214.959C153.097 214.841 152.886 214.65 152.794 214.564C152.663 214.439 152.525 214.314 152.387 214.189L152.334 214.143C152.209 214.024 151.992 213.833 151.9 213.748C151.769 213.629 151.637 213.504 151.506 213.386L150.546 212.51C150.408 212.378 150.152 212.155 150.073 212.082C149.849 211.878 149.264 211.345 149.179 211.266C148.982 211.082 148.449 210.608 148.304 210.469C148.173 210.344 148.035 210.219 147.897 210.101L147.851 210.061C147.719 209.936 147.581 209.811 147.443 209.686L147.397 209.64C147.266 209.521 147.134 209.396 147.003 209.278L146.931 209.212C146.806 209.093 146.589 208.902 146.497 208.817C146.365 208.692 146.227 208.567 146.089 208.448L146.043 208.409C145.912 208.284 145.774 208.165 145.642 208.04L145.59 207.994C145.458 207.869 145.32 207.744 145.182 207.619L145.136 207.579C145.011 207.461 144.801 207.27 144.702 207.184C144.564 207.059 144.426 206.927 144.288 206.802L144.235 206.756C144.111 206.638 143.894 206.447 143.802 206.361C143.67 206.236 143.532 206.111 143.394 205.993L143.355 205.96C143.217 205.828 143.072 205.696 142.927 205.571L142.901 205.545C142.77 205.427 142.638 205.308 142.507 205.183L142.454 205.137C142.323 205.018 142.191 204.893 142.06 204.775L141.994 204.716C141.862 204.59 141.639 204.393 141.554 204.314C141.422 204.195 141.205 203.998 141.113 203.912C140.982 203.794 140.85 203.669 140.719 203.55L140.232 203.109C140.094 202.984 139.956 202.852 139.818 202.727L139.766 202.681C139.641 202.563 139.509 202.451 139.384 202.332L139.305 202.26C139.174 202.135 138.95 201.937 138.865 201.858C138.727 201.733 138.49 201.516 138.405 201.444C138.273 201.325 138.063 201.134 137.964 201.049C137.826 200.924 137.695 200.798 137.55 200.673L137.504 200.634C137.379 200.515 137.162 200.324 137.07 200.239C136.939 200.114 136.801 199.989 136.663 199.87L136.61 199.818C136.485 199.699 136.262 199.502 136.17 199.416C136.032 199.291 135.894 199.166 135.756 199.041L135.703 198.995C135.572 198.876 135.361 198.679 135.269 198.6C135.131 198.468 134.987 198.343 134.842 198.211L134.809 198.178C134.671 198.053 134.533 197.928 134.395 197.803L134.362 197.777C134.231 197.658 134.099 197.533 133.968 197.415L133.435 196.934C133.166 196.684 132.305 195.907 132.121 195.736C131.989 195.611 131.851 195.486 131.713 195.367L131.654 195.315C131.522 195.19 131.279 194.972 131.194 194.9C131.062 194.781 130.852 194.584 130.753 194.498C130.622 194.38 130.497 194.261 130.365 194.143L130.313 194.097C130.181 193.972 130.05 193.853 129.912 193.735L129.846 193.675C129.721 193.557 129.504 193.366 129.406 193.274C129.274 193.149 129.136 193.03 129.005 192.905L128.959 192.866C128.827 192.741 128.689 192.622 128.558 192.497L128.071 192.049C127.933 191.924 127.795 191.799 127.657 191.674L127.611 191.628C127.473 191.503 127.335 191.378 127.197 191.253L127.138 191.2C127.006 191.075 126.789 190.884 126.704 190.805C126.579 190.687 126.349 190.483 126.257 190.397C126.119 190.272 125.981 190.14 125.836 190.015L125.803 189.989C125.672 189.864 125.534 189.745 125.396 189.62L125.356 189.587C125.225 189.462 125.087 189.337 124.949 189.219L124.89 189.166C124.752 189.041 124.528 188.83 124.443 188.758C124.298 188.626 124.055 188.402 123.976 188.336C123.779 188.152 123.259 187.678 123.108 187.546C122.97 187.421 122.839 187.296 122.694 187.171L122.201 186.723C122.07 186.605 121.846 186.394 121.748 186.309C121.616 186.184 121.478 186.059 121.34 185.934L121.287 185.881C121.149 185.756 120.926 185.552 120.84 185.473C120.702 185.348 120.472 185.137 120.387 185.058C120.249 184.933 120.019 184.722 119.94 184.65C119.802 184.525 119.552 184.301 119.473 184.228C119.263 184.038 118.73 183.557 118.599 183.432C118.467 183.313 118.244 183.109 118.152 183.024C118.014 182.899 117.876 182.767 117.731 182.642L117.692 182.602C117.56 182.477 117.422 182.352 117.284 182.234L117.238 182.194C117.094 182.063 116.837 181.832 116.765 181.76C116.561 181.575 116.081 181.141 115.923 180.989C115.319 180.417 114.681 179.844 113.978 179.245C113.222 178.58 112.518 177.988 111.828 177.441L111.808 177.428L111.789 177.415L111.703 177.349L111.677 177.329L111.651 177.309C100.975 169.159 87.447 165.025 71.3946 165.025C70.4151 165.025 69.4159 165.038 68.4233 165.071C48.762 165.67 32.3348 171.266 19.5954 181.694C12.9956 186.987 7.9866 193.004 4.70643 199.587C1.36709 206.302 -0.210552 213.636 0.0260944 221.397C0.210152 227.474 2.70808 233.445 7.6645 239.659L7.94716 240.008L8.22982 240.357L8.5585 240.667L8.69654 240.798C9.07123 241.193 10.4977 242.727 15.9405 248.659L18.2873 251.2L6.0277 313.497L5.12713 318.066L5.58727 318.342L5.56098 318.467L6.06714 318.764L6.04084 318.895L6.4747 319.152L6.4484 319.297L6.98086 319.613L6.96113 319.725L7.42128 319.995L7.40156 320.107L7.82884 320.363L7.79597 320.508L8.26926 320.791L8.24297 320.916L8.74913 321.219L8.72283 321.344L9.23557 321.647L9.21585 321.759L9.68914 322.042L9.66284 322.167L10.0967 322.424L10.077 322.543L10.5831 322.845L10.5568 322.97L11.0236 323.247L10.9973 323.379L11.4443 323.642L11.418 323.787L11.8978 324.07L11.8715 324.208L12.3448 324.491L12.3185 324.623L12.8444 324.932L12.8247 325.044L13.298 325.327L13.2717 325.452L13.699 325.702L13.6727 325.834L14.1788 326.137L14.1525 326.262L14.6456 326.552L14.6193 326.697L15.0597 326.953L15.0334 327.098L15.4935 327.368L15.4672 327.5L15.9668 327.796L15.9405 327.921L16.427 328.211L16.4073 328.309L16.8937 328.599L16.8674 328.724L17.3144 328.988L17.2881 329.119L17.7943 329.422L17.768 329.547L18.2544 329.837L18.2281 329.962L18.6488 330.212L18.6225 330.357L19.1155 330.646L19.0892 330.778L19.5428 331.048L19.5231 331.16L20.0358 331.463L20.0161 331.568L20.496 331.851L20.4697 331.976L20.9101 332.24L20.8838 332.384L21.4163 332.7L21.39 332.826L21.8041 333.069L21.7778 333.214L22.284 333.51L22.2577 333.642L22.7112 333.912L22.6849 334.037L23.1648 334.32L23.1451 334.432L23.6578 334.735L23.6315 334.86L24.1245 335.149L24.0982 335.294L24.5518 335.564L24.5255 335.689L25.0054 335.972L24.9791 336.097L25.4064 336.348L25.3735 336.499L25.8534 336.782L25.8336 336.894L26.3069 337.177L26.2806 337.302L26.7474 337.579L26.7211 337.691L27.2535 338.007L27.2272 338.132L27.7071 338.421L27.6808 338.553L28.1475 338.829L28.1212 338.955L28.5945 339.238L28.5748 339.35L29.0152 339.613L28.9889 339.758L29.4556 340.034L29.4294 340.159L29.9224 340.456L29.8961 340.587L30.3496 340.857L30.3233 340.982L30.8624 341.298L30.8361 341.423L31.2699 341.68L31.2436 341.825L31.7498 342.128L31.7301 342.24L32.2034 342.523L32.1771 342.654L32.6175 342.918L32.5912 343.063L33.0579 343.339L33.0316 343.484L33.5115 343.767L33.4852 343.899L33.9979 344.201L33.9782 344.313L34.4712 344.61L34.4449 344.735L34.8591 344.978L34.8328 345.11L35.3521 345.419L35.3324 345.531L35.8122 345.814L35.7859 345.946L36.2329 346.209L36.2066 346.348L36.6733 346.624L36.6471 346.756L37.1203 347.039L37.0941 347.164L37.6068 347.467L37.5871 347.559L38.0538 347.835L38.0275 347.967L38.4876 348.237L38.4613 348.382L38.9741 348.685L38.9543 348.797L39.4211 349.073L39.3948 349.218L39.8155 349.468L39.7826 349.613L40.2888 349.909L40.2625 350.034L40.7226 350.304L40.6963 350.429L41.2156 350.739L41.1959 350.85L41.6692 351.127L41.6429 351.252L42.0768 351.509L42.0439 351.667L42.5566 351.97L42.5369 352.082L43.0365 352.378L43.0102 352.503L43.444 352.76L43.4178 352.911L43.891 353.188L43.8713 353.299L44.338 353.576L44.3118 353.708L44.8245 354.01L44.8048 354.116L45.2781 354.399L45.2518 354.531L45.6922 354.794L45.6659 354.939L46.1655 355.235L46.1392 355.353L50.1424 357.723L54.1326 360.087C58.9904 362.964 65.1629 365.393 72.9985 367.5H73.0314L73.0642 367.513L73.1563 367.539C81.2745 369.593 89.2548 370.633 96.9195 370.633C97.7806 370.633 98.6614 370.62 99.5226 370.594C118.513 370.014 134.31 363.931 146.51 352.509C146.543 352.542 146.582 352.575 146.615 352.602C146.76 352.733 146.904 352.872 147.062 353.01C147.233 353.168 147.397 353.319 147.522 353.425C147.68 353.569 147.831 353.708 147.963 353.826C148.127 353.978 148.291 354.129 148.423 354.241C148.587 354.392 148.745 354.537 148.87 354.649C149.034 354.8 149.192 354.945 149.323 355.064C149.461 355.195 149.613 355.327 149.777 355.479C149.915 355.604 150.053 355.735 150.217 355.88C150.369 356.025 150.526 356.163 150.684 356.308C150.835 356.453 150.993 356.591 151.118 356.703C151.282 356.854 151.447 357.006 151.565 357.111C151.703 357.236 151.848 357.368 152.012 357.519C152.163 357.658 152.314 357.796 152.466 357.934C152.61 358.066 152.755 358.204 152.913 358.342C153.051 358.474 153.195 358.606 153.36 358.75C153.511 358.889 153.662 359.027 153.813 359.165C153.984 359.323 154.155 359.481 154.326 359.633C160.893 365.373 169.589 368.283 180.173 368.283C180.771 368.283 181.389 368.276 182 368.257C186.339 368.125 190.513 367.434 194.47 366.203L198.217 366.091L229.382 365.143C232.478 365.051 235.377 363.464 237.132 360.91C237.836 359.883 238.329 358.737 238.605 357.546C239.229 357.914 239.867 358.27 240.518 358.619C249.195 363.22 258.989 365.551 269.632 365.551C270.381 365.551 271.15 365.538 271.913 365.518C285.119 365.116 296.333 360.548 305.234 351.95L305.247 351.937L305.26 351.924C307.225 350.001 308.967 347.98 310.486 345.874C310.578 345.953 310.663 346.038 310.755 346.117C310.9 346.255 311.058 346.394 311.216 346.538C311.354 346.664 311.511 346.808 311.669 346.947L313.917 348.994C314.062 349.132 314.213 349.264 314.358 349.396C314.522 349.547 314.673 349.685 314.824 349.824L315.304 350.265C315.429 350.383 315.58 350.515 315.725 350.653L316.185 351.068L316.198 351.081C316.336 351.213 316.481 351.338 316.625 351.469C317.421 352.2 318.19 352.852 318.966 353.464C327.071 360.021 337.049 363.339 348.619 363.339C349.23 363.339 349.861 363.332 350.492 363.313C365.046 362.872 377.549 356.933 387.652 345.676C388.691 344.531 389.664 343.379 390.584 342.22L390.899 342.51C391.097 342.694 391.682 343.221 391.8 343.332C391.932 343.458 392.162 343.662 392.247 343.741C392.385 343.866 392.609 344.07 392.694 344.149C392.832 344.274 393.062 344.484 393.148 344.563C393.279 344.682 393.496 344.879 393.588 344.965C393.733 345.103 393.884 345.235 394.035 345.373L394.048 345.386C394.186 345.518 394.324 345.643 394.469 345.768L394.489 345.788C394.633 345.926 394.784 346.058 394.929 346.19L395.843 347.026C396.033 347.197 396.579 347.697 396.73 347.829C396.881 347.974 397.033 348.112 397.19 348.25L397.23 348.29C397.453 348.494 397.973 348.968 398.097 349.08C398.222 349.198 398.433 349.382 398.531 349.475C406.972 357.388 417.949 361.397 431.156 361.397C431.819 361.397 432.503 361.384 433.18 361.364C445.683 360.982 457.022 357.197 466.896 350.107L469.006 348.592L471.116 347.078L471.622 344.531L497.719 213.214L499.974 201.852L499.402 202.056L499.52 201.457L498.961 201.654L499.086 201.022L498.508 201.226L498.626 200.621L498.047 200.825L498.172 200.206L497.587 200.417L497.712 199.804L497.167 200.002L497.285 199.403L496.72 199.6L496.845 198.968L496.246 199.179L496.371 198.567L495.812 198.764L495.937 198.152L495.352 198.356L495.471 197.744L494.899 197.948L495.017 197.342L494.445 197.546L494.57 196.921L493.978 197.132L494.097 196.519L493.551 196.71L493.676 196.098L493.111 196.302L493.236 195.683L492.651 195.887L492.769 195.295L492.197 195.499L492.322 194.874L491.743 195.078L491.868 194.452L491.296 194.656L491.415 194.044L490.843 194.248L490.961 193.636L490.37 193.847L490.495 193.234L489.949 193.425L490.067 192.82L489.489 193.024L489.614 192.405L489.042 192.609L489.16 191.997L488.595 192.201L488.72 191.575L488.115 191.793L488.233 191.18L487.681 191.378L487.799 190.779L487.234 190.983L487.366 190.338L486.754 190.555L486.873 189.949L486.34 190.14L486.458 189.548L485.873 189.752L485.992 189.146L485.433 189.344L485.558 188.725L484.966 188.935L485.091 188.317L484.499 188.527L484.618 187.915L484.066 188.113L484.191 187.5L483.625 187.698L483.75 187.086L483.178 187.29L483.297 186.684L482.718 186.888L482.843 186.269L482.278 186.473L482.396 185.874L481.824 186.078L481.949 185.453L481.37 185.657L481.495 185.038L480.904 185.249L481.029 184.637L480.483 184.828L480.601 184.222L480.03 184.426L480.154 183.807L479.583 184.011L479.701 183.406L479.122 183.61L479.247 182.997L478.675 183.201L478.794 182.589L478.215 182.793L478.34 182.161L477.762 182.365L477.887 181.74L477.282 181.957L477.4 181.358L476.874 181.542L476.993 180.943L476.421 181.147L476.546 180.522L475.974 180.726L476.092 180.12L475.507 180.325L475.632 179.699L475.073 179.897L475.198 179.284L474.606 179.495L474.731 178.883L474.173 179.08L474.297 178.468L473.719 178.672L473.837 178.073L473.272 178.271L473.397 177.658L472.812 177.862L472.937 177.23L472.365 177.435L472.483 176.835L471.918 177.033L472.043 176.421L471.471 176.625L471.596 176.013L471.024 176.217L471.142 175.604L470.577 175.808L470.702 175.19L470.13 175.394L470.248 174.788L469.67 174.992L469.795 174.373L469.216 174.577L469.341 173.939L468.763 174.143L468.881 173.537L468.316 173.735L468.434 173.136L467.862 173.34L467.98 172.734L467.408 172.938L467.533 172.326L466.961 172.53L467.086 171.905L466.514 172.109L466.639 171.49L466.048 171.701L466.173 171.082L465.607 171.279L465.732 170.66L465.16 170.864L465.279 170.265L464.713 170.469L464.832 169.877L464.26 170.081L464.385 169.449L463.813 169.653L463.931 169.054L463.366 169.252L463.491 168.626L462.919 168.83L463.037 168.225L462.459 168.429L462.583 167.803L461.979 168.02L462.097 167.408L461.565 167.599L461.683 166.993L461.104 167.198L461.229 166.585L460.657 166.789L460.782 166.177L460.204 166.381L460.329 165.749L459.75 165.953L459.875 165.328L459.303 165.532L459.422 164.926L458.863 165.124L458.981 164.525L459.007 164.551Z" fill="url(#paint2_linear_44_2)"/>
<path d="M482.015 222.226L482.14 221.614L481.568 221.818L481.693 221.206L481.121 221.41L481.246 220.798L480.674 221.002L480.799 220.39L480.227 220.594L480.352 219.982L479.78 220.186L479.905 219.573L479.333 219.777L479.458 219.165L478.886 219.369L479.011 218.757L478.439 218.961L478.564 218.349L477.992 218.553L478.117 217.941L477.545 218.145L477.67 217.533L477.098 217.737L477.223 217.124L476.651 217.329L476.776 216.716L476.204 216.92L476.329 216.308L475.757 216.512L475.882 215.9L475.31 216.104L475.435 215.492L474.863 215.696L474.988 215.084L474.416 215.288L474.541 214.675L473.969 214.88L474.094 214.267L473.522 214.471L473.647 213.859L473.075 214.063L473.2 213.451L472.628 213.655L472.753 213.043L472.181 213.247L472.306 212.635L471.734 212.839L471.859 212.226L471.287 212.431L471.412 211.818L470.84 212.022L470.965 211.41L470.393 211.614L470.518 211.002L469.946 211.206L470.071 210.594L469.499 210.798L469.624 210.186L469.052 210.39L469.177 209.778L468.605 209.982L468.73 209.369L468.158 209.573L468.283 208.961L467.711 209.165L467.836 208.553L467.264 208.757L467.389 208.145L466.817 208.349L466.942 207.737L466.37 207.941L466.495 207.329L465.923 207.533L466.048 206.92L465.476 207.124L465.601 206.512L465.029 206.716L465.154 206.104L464.582 206.308L464.707 205.696L464.135 205.9L464.26 205.288L463.688 205.492L463.813 204.88L463.241 205.084L463.366 204.471L462.794 204.676L462.919 204.063L462.347 204.267L462.472 203.655L461.9 203.859L462.025 203.247L461.453 203.451L461.578 202.839L461.006 203.043L461.131 202.431L460.559 202.635L460.684 202.022L460.112 202.227L460.237 201.614L459.665 201.818L459.79 201.206L459.218 201.41L459.343 200.798L458.771 201.002L458.896 200.39L458.324 200.594L458.449 199.982L457.877 200.186L458.002 199.573L457.43 199.778L457.555 199.165L456.983 199.369L457.108 198.757L456.536 198.961L456.661 198.349L456.089 198.553L456.214 197.941L455.642 198.145L455.767 197.533L455.195 197.737L455.32 197.125L454.748 197.329L454.873 196.716L454.301 196.92L454.426 196.308L453.854 196.512L453.979 195.9L453.407 196.104L453.532 195.492L452.96 195.696L453.085 195.084L452.513 195.288L452.638 194.676L452.066 194.88L452.191 194.267L451.619 194.471L451.744 193.859L451.172 194.063L451.297 193.451L450.725 193.655L450.85 193.043L450.278 193.247L450.403 192.635L449.831 192.839L449.956 192.227L449.384 192.431L449.509 191.818L448.937 192.023L449.062 191.41L448.49 191.614L448.615 191.002L448.043 191.206L448.168 190.594L447.596 190.798L447.721 190.186L447.149 190.39L447.274 189.778L446.702 189.982L446.827 189.369L446.255 189.574L446.38 188.961L445.808 189.165L445.933 188.553L445.361 188.757L445.486 188.145L444.914 188.349L445.039 187.737L444.467 187.941L444.592 187.329L444.02 187.533L444.145 186.92L443.573 187.125L443.698 186.512L443.126 186.716L443.251 186.104L442.679 186.308L442.804 185.696L442.232 185.9L442.357 185.288L441.785 185.492L441.91 184.88L417.864 193.418C419.199 196.723 419.39 200.87 418.43 205.854L413.697 229.784C413.664 229.751 413.625 229.718 413.585 229.692C413.441 229.554 413.289 229.415 413.132 229.284C412.987 229.145 412.836 229.007 412.685 228.876C412.54 228.737 412.389 228.599 412.231 228.467C412.086 228.329 411.935 228.191 411.777 228.059C411.633 227.921 411.482 227.783 411.324 227.651C411.179 227.513 411.028 227.375 410.87 227.243C410.726 227.105 410.574 226.966 410.423 226.835C410.279 226.696 410.127 226.558 409.97 226.427C409.825 226.288 409.674 226.15 409.516 226.018C409.372 225.88 409.22 225.742 409.063 225.61C408.918 225.472 408.767 225.334 408.609 225.202C408.464 225.064 408.313 224.926 408.162 224.794C408.017 224.656 407.866 224.517 407.708 224.386C407.137 223.839 406.486 223.313 405.75 222.806C402.463 220.554 398.229 219.508 393.036 219.666C383.518 219.955 374.9 225.301 367.176 235.689C364.376 239.455 362.095 243.418 360.307 247.585C360.248 247.532 360.182 247.48 360.123 247.427C359.972 247.289 359.827 247.151 359.676 247.019C359.525 246.881 359.373 246.742 359.222 246.611C359.071 246.473 358.927 246.334 358.769 246.203C358.618 246.064 358.473 245.926 358.315 245.794C358.164 245.656 358.019 245.518 357.868 245.386C357.717 245.248 357.566 245.11 357.415 244.978C357.263 244.84 357.119 244.702 356.961 244.57C356.81 244.432 356.665 244.293 356.507 244.162C356.356 244.024 356.212 243.885 356.054 243.754C355.903 243.615 355.758 243.477 355.607 243.346C355.456 243.207 355.311 243.069 355.153 242.937C355.002 242.799 354.851 242.661 354.7 242.529C354.549 242.391 354.404 242.253 354.246 242.121C354.095 241.983 353.944 241.845 353.793 241.713C353.641 241.575 353.497 241.436 353.346 241.305C353.194 241.166 353.043 241.028 352.892 240.897C352.741 240.758 352.596 240.62 352.438 240.488C352.287 240.35 352.136 240.212 351.985 240.08C351.834 239.942 351.689 239.804 351.531 239.672C351.38 239.534 351.236 239.396 351.084 239.264C350.933 239.126 350.782 238.987 350.631 238.856C350.48 238.717 350.328 238.579 350.177 238.448C350.026 238.309 349.881 238.171 349.724 238.039C349.572 237.901 349.428 237.763 349.277 237.631C349.125 237.493 348.974 237.355 348.823 237.223C348.672 237.085 348.521 236.947 348.369 236.815C348.218 236.677 348.074 236.538 347.916 236.407C347.765 236.269 347.613 236.13 347.462 235.999C347.311 235.86 347.166 235.722 347.015 235.59C346.864 235.452 346.713 235.314 346.562 235.182C346.411 235.044 346.266 234.906 346.108 234.774C345.957 234.636 345.806 234.498 345.655 234.366C345.503 234.228 345.359 234.089 345.201 233.958C345.05 233.82 344.905 233.681 344.754 233.55C344.603 233.411 344.452 233.273 344.3 233.141C344.149 233.003 343.998 232.865 343.847 232.733C343.696 232.595 343.551 232.457 343.393 232.325C343.242 232.187 343.091 232.049 342.94 231.917C342.789 231.779 342.644 231.64 342.493 231.509C342.342 231.371 342.19 231.232 342.039 231.101C341.888 230.962 341.743 230.824 341.586 230.693C341.434 230.554 341.283 230.416 341.132 230.284C340.981 230.146 340.836 230.008 340.678 229.876C340.527 229.738 340.383 229.6 340.231 229.468C340.08 229.33 339.929 229.192 339.778 229.06C334.46 224.103 327.479 221.746 318.815 222.016C304.971 222.437 293.658 228.606 284.863 240.521C282.93 243.214 281.247 245.979 279.814 248.829C279.683 248.711 279.551 248.586 279.42 248.467C279.269 248.329 279.124 248.191 278.966 248.059C278.815 247.921 278.671 247.783 278.513 247.651C278.362 247.513 278.217 247.374 278.066 247.243C277.915 247.105 277.77 246.966 277.612 246.835C277.461 246.696 277.316 246.558 277.159 246.426C277.008 246.288 276.863 246.15 276.705 246.018C276.554 245.88 276.409 245.742 276.252 245.61C276.1 245.472 275.956 245.334 275.805 245.202C275.653 245.064 275.509 244.925 275.351 244.794C275.2 244.656 275.055 244.517 274.897 244.386C274.746 244.247 274.602 244.109 274.444 243.977C274.293 243.839 274.148 243.701 273.99 243.569C273.839 243.431 273.694 243.293 273.543 243.161C273.392 243.023 273.247 242.885 273.09 242.753C272.939 242.615 272.794 242.477 272.636 242.345C272.485 242.207 272.34 242.068 272.183 241.937C272.031 241.798 271.887 241.66 271.736 241.529C271.584 241.39 271.44 241.252 271.282 241.12C271.131 240.982 270.986 240.844 270.828 240.712C270.677 240.574 270.533 240.436 270.375 240.304C270.224 240.166 270.079 240.028 269.921 239.896C269.77 239.758 269.625 239.619 269.474 239.488C269.323 239.349 269.178 239.211 269.021 239.08C268.87 238.941 268.725 238.803 268.567 238.671C268.416 238.533 268.271 238.395 268.114 238.263C267.962 238.125 267.818 237.987 267.66 237.855C267.509 237.717 267.364 237.579 267.213 237.447C267.062 237.309 266.917 237.17 266.759 237.039C266.608 236.901 266.464 236.762 266.306 236.631C266.155 236.492 266.01 236.354 265.852 236.222C265.701 236.084 265.556 235.946 265.399 235.814C265.248 235.676 265.103 235.538 264.952 235.406C264.801 235.268 264.656 235.13 264.498 234.998C264.347 234.86 264.202 234.721 264.045 234.59C263.893 234.452 263.749 234.313 263.591 234.182C263.44 234.043 263.295 233.905 263.137 233.773C262.986 233.635 262.842 233.497 262.69 233.365C262.539 233.227 262.395 233.089 262.237 232.957C261.185 231.989 260.041 231.081 258.786 230.238C252.784 226.209 245.218 224.333 236.074 224.616C227.174 224.886 219.831 227.434 214.04 232.259C209.544 236.005 206.868 240.653 206.007 246.196C205.869 246.064 205.724 245.933 205.58 245.808C205.435 245.669 205.284 245.531 205.126 245.399C204.982 245.261 204.83 245.123 204.673 244.991C204.528 244.853 204.377 244.715 204.219 244.583C204.075 244.445 203.923 244.307 203.772 244.175C203.628 244.037 203.476 243.898 203.319 243.767C203.174 243.629 203.023 243.49 202.865 243.359C202.72 243.22 202.569 243.082 202.411 242.951C202.267 242.812 202.116 242.674 201.958 242.542C201.813 242.404 201.662 242.266 201.511 242.134C201.366 241.996 201.215 241.858 201.057 241.726C200.913 241.588 200.761 241.45 200.604 241.318C200.459 241.18 200.308 241.041 200.15 240.91C200.006 240.771 199.854 240.633 199.703 240.502C199.559 240.363 199.407 240.225 199.25 240.093C199.105 239.955 198.954 239.817 198.796 239.685C198.651 239.547 198.5 239.409 198.342 239.277C198.198 239.139 198.047 239.001 197.889 238.869C197.744 238.731 197.593 238.592 197.442 238.461C197.297 238.322 197.146 238.184 196.988 238.053C196.844 237.914 196.693 237.776 196.535 237.644C196.39 237.506 196.239 237.368 196.081 237.236C195.937 237.098 195.785 236.96 195.628 236.828C195.483 236.69 195.332 236.552 195.181 236.42C195.036 236.282 194.885 236.143 194.727 236.012C194.582 235.874 194.431 235.735 194.273 235.604C194.129 235.465 193.978 235.327 193.82 235.195C193.675 235.057 193.524 234.919 193.366 234.787C193.222 234.649 193.071 234.511 192.919 234.379C192.775 234.241 192.624 234.103 192.466 233.971C192.321 233.833 192.17 233.694 192.012 233.563C191.868 233.425 191.716 233.286 191.559 233.155C191.414 233.016 191.263 232.878 191.105 232.746C190.96 232.608 190.809 232.47 190.658 232.338C190.513 232.2 190.362 232.062 190.204 231.93C186.122 228.033 179.082 226.236 169.084 226.538C162.162 226.749 155.746 228.046 149.837 230.409C149.37 229.87 148.877 229.343 148.371 228.823C148.371 228.823 148.364 228.816 148.358 228.81C148.062 228.507 147.766 228.204 147.457 227.908C147.207 227.664 146.944 227.414 146.681 227.177C146.537 227.039 146.379 226.907 146.234 226.769C146.09 226.631 145.932 226.492 145.781 226.361C145.636 226.222 145.478 226.091 145.327 225.953C145.183 225.814 145.025 225.683 144.874 225.544C144.729 225.406 144.571 225.274 144.42 225.136C144.275 224.998 144.118 224.866 143.973 224.728C143.828 224.59 143.671 224.452 143.519 224.32C143.375 224.182 143.217 224.05 143.066 223.912C142.921 223.774 142.763 223.642 142.612 223.504C142.468 223.365 142.31 223.234 142.165 223.095C142.021 222.957 141.863 222.826 141.712 222.687C141.567 222.549 141.409 222.411 141.258 222.279C141.114 222.141 140.956 222.009 140.805 221.871C140.66 221.733 140.502 221.601 140.351 221.463C140.206 221.325 140.049 221.193 139.897 221.055C139.753 220.916 139.595 220.785 139.45 220.646C139.306 220.508 139.148 220.37 138.997 220.238C138.852 220.1 138.694 219.968 138.543 219.83C138.399 219.692 138.241 219.56 138.09 219.422C137.945 219.284 137.787 219.152 137.636 219.014C137.492 218.876 137.334 218.744 137.189 218.606C137.045 218.467 136.887 218.329 136.736 218.197C136.591 218.059 136.433 217.928 136.282 217.789C136.137 217.651 135.98 217.519 135.828 217.381C135.684 217.243 135.526 217.111 135.381 216.973C135.237 216.835 135.079 216.697 134.928 216.565C134.783 216.427 134.626 216.295 134.474 216.157C134.33 216.018 134.172 215.887 134.021 215.749C133.876 215.61 133.718 215.479 133.567 215.34C133.423 215.202 133.265 215.07 133.12 214.932C132.976 214.794 132.818 214.656 132.667 214.524C132.522 214.386 132.364 214.254 132.213 214.116C132.068 213.978 131.911 213.846 131.766 213.708C131.621 213.569 131.464 213.431 131.312 213.3C131.168 213.161 131.01 213.03 130.865 212.891C130.721 212.753 130.563 212.615 130.412 212.483C130.267 212.345 130.11 212.213 129.958 212.075C129.814 211.937 129.656 211.805 129.505 211.667C129.36 211.529 129.202 211.397 129.051 211.259C128.907 211.121 128.749 210.989 128.604 210.851C128.46 210.712 128.302 210.574 128.151 210.442C128.006 210.304 127.848 210.173 127.697 210.034C127.552 209.896 127.395 209.764 127.243 209.626C127.099 209.488 126.941 209.356 126.79 209.218C126.645 209.08 126.488 208.948 126.343 208.81C126.198 208.672 126.041 208.533 125.889 208.402C125.745 208.263 125.587 208.132 125.436 207.993C125.291 207.855 125.133 207.724 124.982 207.585C124.838 207.447 124.68 207.315 124.535 207.177C124.391 207.039 124.233 206.901 124.082 206.769C123.937 206.631 123.779 206.499 123.628 206.361C123.483 206.223 123.326 206.091 123.174 205.953C123.03 205.814 122.872 205.683 122.721 205.544C122.576 205.406 122.419 205.275 122.274 205.136C122.129 204.998 121.972 204.866 121.82 204.728C121.676 204.59 121.518 204.452 121.367 204.32C121.222 204.182 121.064 204.05 120.913 203.912C120.769 203.774 120.611 203.642 120.46 203.504C120.315 203.365 120.157 203.234 120.013 203.096C119.868 202.957 119.71 202.819 119.559 202.687C119.414 202.549 119.257 202.417 119.105 202.279C118.961 202.141 118.803 202.009 118.652 201.871C118.507 201.733 118.35 201.601 118.198 201.463C118.054 201.325 117.896 201.193 117.751 201.055C117.607 200.916 117.449 200.778 117.298 200.647C117.153 200.508 116.995 200.377 116.844 200.238C116.7 200.1 116.542 199.968 116.391 199.83C116.246 199.692 116.088 199.56 115.944 199.422C115.799 199.284 115.641 199.146 115.49 199.014C115.345 198.876 115.188 198.744 115.036 198.606C114.892 198.468 114.734 198.336 114.583 198.198C114.438 198.059 114.281 197.928 114.129 197.789C113.985 197.651 113.827 197.52 113.682 197.381C113.538 197.243 113.38 197.105 113.229 196.973C113.084 196.835 112.926 196.703 112.775 196.565C112.631 196.427 112.473 196.295 112.322 196.157C112.177 196.019 112.019 195.887 111.868 195.749C111.723 195.61 111.566 195.479 111.421 195.34C111.276 195.202 111.119 195.064 110.967 194.932C110.823 194.794 110.665 194.662 110.514 194.524C110.369 194.386 110.212 194.254 110.06 194.116C109.916 193.978 109.758 193.846 109.607 193.708C109.462 193.57 109.304 193.438 109.16 193.3C109.015 193.161 108.857 193.023 108.706 192.891C108.562 192.753 108.404 192.622 108.253 192.483C108.108 192.345 107.95 192.213 107.799 192.075C107.654 191.937 107.497 191.805 107.345 191.667C107.201 191.529 107.043 191.397 106.898 191.259C106.386 190.772 105.847 190.291 105.288 189.817C104.736 189.33 104.17 188.849 103.579 188.382C94.7112 181.588 83.109 178.415 68.7788 178.849C51.9703 179.363 38.3172 183.932 27.8193 192.549C17.6764 200.666 12.7725 210.35 13.1144 221.614C13.2064 224.708 14.7972 228.191 17.8867 232.062C18.1431 232.305 20.7002 235.077 25.558 240.376C25.558 240.35 25.558 240.324 25.558 240.297C25.7092 240.462 25.8538 240.62 26.005 240.785C26.005 240.758 26.005 240.732 26.005 240.706C26.1562 240.87 26.3008 241.028 26.452 241.193C26.452 241.166 26.452 241.14 26.452 241.114C26.6032 241.278 26.7478 241.436 26.899 241.601C26.899 241.575 26.899 241.548 26.899 241.522C27.0502 241.687 27.1948 241.845 27.346 242.009C27.346 241.983 27.346 241.956 27.346 241.93C27.4972 242.095 27.6418 242.253 27.793 242.417C27.793 242.391 27.793 242.365 27.793 242.338C27.9442 242.503 28.0888 242.661 28.24 242.825C28.24 242.799 28.24 242.773 28.24 242.746C28.3912 242.911 28.5358 243.069 28.687 243.234C28.687 243.207 28.687 243.181 28.687 243.155C28.8382 243.319 28.9828 243.477 29.134 243.642C29.134 243.615 29.134 243.589 29.134 243.563C29.2852 243.727 29.4298 243.885 29.581 244.05C29.581 244.024 29.581 243.997 29.581 243.971C29.7322 244.135 29.8768 244.293 30.028 244.458C30.028 244.432 30.028 244.405 30.028 244.379C30.1792 244.544 30.3238 244.702 30.475 244.866C30.475 244.84 30.475 244.814 30.475 244.787C30.6262 244.952 30.7708 245.11 30.922 245.274C30.922 245.248 30.922 245.222 30.922 245.195C31.0732 245.36 31.2178 245.518 31.369 245.683C31.369 245.656 31.369 245.63 31.369 245.604C31.5202 245.768 31.6648 245.926 31.816 246.091C31.816 246.064 31.816 246.038 31.816 246.012C31.9672 246.176 32.1118 246.334 32.263 246.499C32.263 246.473 32.263 246.446 32.263 246.42C32.3616 246.525 32.4602 246.637 32.5588 246.742L19.701 312.061C19.8522 312.154 20.0231 312.239 20.1809 312.331L20.1546 312.476C20.3058 312.568 20.4767 312.654 20.6344 312.746L20.6082 312.891C20.7593 312.983 20.9303 313.069 21.088 313.161L21.0617 313.306C21.2129 313.398 21.3838 313.483 21.5416 313.576L21.5153 313.72C21.6665 313.813 21.8374 313.898 21.9952 313.99L21.9689 314.135C22.1201 314.227 22.291 314.313 22.4487 314.405L22.4224 314.55C22.5736 314.642 22.7445 314.728 22.9023 314.82L22.876 314.965C23.0272 315.057 23.1981 315.142 23.3559 315.235L23.3296 315.379C23.4808 315.472 23.6517 315.557 23.8094 315.649L23.7832 315.794C23.9343 315.886 24.1053 315.972 24.263 316.064L24.2367 316.209C24.3879 316.301 24.5588 316.387 24.7166 316.479L24.6903 316.624C24.8415 316.716 25.0124 316.801 25.1702 316.894L25.1439 317.038C25.2951 317.131 25.466 317.216 25.6237 317.308L25.5974 317.453C25.7486 317.545 25.9195 317.631 26.0773 317.723L26.051 317.868C26.2022 317.96 26.3731 318.046 26.5309 318.138L26.5046 318.283C26.6558 318.375 26.8267 318.46 26.9844 318.553L26.9582 318.697C27.1093 318.79 27.2803 318.875 27.438 318.967L27.4117 319.112C27.5629 319.204 27.7338 319.29 27.8916 319.382L27.8653 319.527C28.0165 319.619 28.1874 319.705 28.3452 319.797L28.3189 319.942C28.4701 320.034 28.641 320.119 28.7987 320.212L28.7724 320.356C28.9236 320.449 29.0945 320.534 29.2523 320.626L29.226 320.771C29.3772 320.863 29.5481 320.949 29.7059 321.041L29.6796 321.186C29.8308 321.278 30.0017 321.364 30.1594 321.456L30.1332 321.601C30.2843 321.693 30.4553 321.778 30.613 321.87L30.5867 322.015C30.7379 322.107 30.9088 322.193 31.0666 322.285L31.0403 322.43C31.1915 322.522 31.3624 322.608 31.5202 322.7L31.4939 322.845C31.6451 322.937 31.816 323.023 31.9737 323.115L31.9474 323.26C32.0986 323.352 32.2695 323.437 32.4273 323.529L32.401 323.674C32.5522 323.766 32.7231 323.852 32.8809 323.944L32.8546 324.089C33.0058 324.181 33.1767 324.267 33.3344 324.359L33.3082 324.504C33.4593 324.596 33.6303 324.682 33.788 324.774L33.7617 324.919C33.9129 325.011 34.0838 325.096 34.2416 325.188L34.2153 325.333C34.3665 325.425 34.5374 325.511 34.6952 325.603L34.6689 325.748C34.8201 325.84 34.991 325.926 35.1487 326.018L35.1224 326.163C35.2736 326.255 35.4445 326.341 35.6023 326.433L35.576 326.578C35.7272 326.67 35.8981 326.755 36.0559 326.847L36.0296 326.992C36.1808 327.084 36.3517 327.17 36.5094 327.262L36.4832 327.407C36.6343 327.499 36.8053 327.585 36.963 327.677L36.9367 327.822C37.0879 327.914 37.2588 327.999 37.4166 328.092L37.3903 328.236C37.5415 328.329 37.7124 328.414 37.8702 328.506L37.8439 328.651C37.9951 328.743 38.166 328.829 38.3237 328.921L38.2974 329.066C38.4486 329.158 38.6195 329.244 38.7773 329.336L38.751 329.481C38.9022 329.573 39.0731 329.658 39.2309 329.751L39.2046 329.895C39.3558 329.988 39.5267 330.073 39.6844 330.165L39.6582 330.31C39.8093 330.402 39.9803 330.488 40.138 330.58L40.1117 330.725C40.2629 330.817 40.4338 330.903 40.5916 330.995L40.5653 331.14C40.7165 331.232 40.8874 331.317 41.0452 331.41L41.0189 331.554C41.1701 331.647 41.341 331.732 41.4987 331.824L41.4724 331.969C41.6236 332.061 41.7945 332.147 41.9523 332.239L41.926 332.384C42.0772 332.476 42.2481 332.562 42.4059 332.654L42.3796 332.799C42.5308 332.891 42.7017 332.976 42.8594 333.069L42.8332 333.213C42.9843 333.306 43.1553 333.391 43.313 333.483L43.2867 333.628C43.4379 333.72 43.6088 333.806 43.7666 333.898L43.7403 334.043C43.8915 334.135 44.0624 334.221 44.2202 334.313L44.1939 334.458C44.3451 334.55 44.516 334.635 44.6737 334.728L44.6474 334.872C44.7986 334.965 44.9695 335.05 45.1273 335.142L45.101 335.287C45.2522 335.379 45.4231 335.465 45.5809 335.557L45.5546 335.702C45.7058 335.794 45.8767 335.88 46.0344 335.972L46.0082 336.117C46.1593 336.209 46.3303 336.294 46.488 336.387L46.4617 336.531C46.6129 336.624 46.7838 336.709 46.9416 336.801L46.9153 336.946C47.0665 337.038 47.2374 337.124 47.3952 337.216L47.3689 337.361C47.5201 337.453 47.691 337.539 47.8487 337.631L47.8224 337.776C47.9736 337.868 48.1445 337.953 48.3023 338.046L48.276 338.19C48.4272 338.283 48.5981 338.368 48.7559 338.46L48.7296 338.605C48.8808 338.697 49.0517 338.783 49.2095 338.875L49.1832 339.02C49.3343 339.112 49.5053 339.198 49.663 339.29L49.6367 339.435C49.7879 339.527 49.9588 339.612 50.1166 339.705L50.0903 339.849C50.2415 339.941 50.4124 340.027 50.5702 340.119L50.5439 340.264C50.6951 340.356 50.866 340.442 51.0237 340.534L50.9974 340.679C51.1486 340.771 51.3195 340.857 51.4773 340.949L51.451 341.094C51.6022 341.186 51.7731 341.271 51.9309 341.363L51.9046 341.508C52.0558 341.6 52.2267 341.686 52.3845 341.778L52.3582 341.923C52.5093 342.015 52.6803 342.101 52.838 342.193L52.8117 342.338C52.9629 342.43 53.1338 342.516 53.2916 342.608L53.2653 342.753C53.4165 342.845 53.5874 342.93 53.7452 343.022L53.7189 343.167C53.8701 343.259 54.041 343.345 54.1987 343.437L54.1724 343.582C54.3236 343.674 54.4945 343.76 54.6523 343.852L54.626 343.997C54.7772 344.089 54.9481 344.175 55.1059 344.267L55.0796 344.412C55.2308 344.504 55.4017 344.589 55.5595 344.681L55.5332 344.826C55.6844 344.918 55.8553 345.004 56.013 345.096L55.9867 345.241C56.1379 345.333 56.3088 345.419 56.4666 345.511L56.4403 345.656C56.5915 345.748 56.7624 345.834 56.9202 345.926L56.8939 346.071C57.0451 346.163 57.216 346.248 57.3737 346.34L57.3474 346.485C57.4986 346.577 57.6695 346.663 57.8273 346.755L57.801 346.9C57.9522 346.992 58.1231 347.078 58.2809 347.17L58.2546 347.315C58.4058 347.407 58.5767 347.492 58.7345 347.585L58.7082 347.729C58.8593 347.822 59.0303 347.907 59.188 347.999L59.1617 348.144C59.3129 348.236 59.4838 348.322 59.6416 348.414L59.6153 348.559C59.7665 348.651 59.9374 348.737 60.0952 348.829L60.0689 348.974C60.2201 349.066 60.391 349.151 60.5487 349.244L60.5224 349.388C60.6736 349.481 60.8445 349.566 61.0023 349.658L60.976 349.803C64.7558 352.041 69.9488 354.056 76.5618 355.833C84.4171 357.822 91.9832 358.71 99.2798 358.486C115.595 357.986 128.729 352.818 138.701 342.976C141.35 340.343 143.585 337.565 145.445 334.662C145.491 334.701 145.531 334.747 145.577 334.787C145.597 334.8 145.616 334.813 145.63 334.833C145.761 334.951 145.892 335.076 146.024 335.195C146.044 335.208 146.063 335.221 146.077 335.241C146.208 335.36 146.339 335.485 146.471 335.61C146.491 335.623 146.51 335.636 146.524 335.656C146.655 335.781 146.786 335.899 146.918 336.024C146.938 336.038 146.957 336.051 146.971 336.071C147.102 336.196 147.233 336.314 147.365 336.439C147.385 336.452 147.404 336.466 147.418 336.485C147.549 336.61 147.68 336.729 147.812 336.854C147.832 336.867 147.851 336.88 147.865 336.9C147.996 337.019 148.127 337.144 148.259 337.262C148.279 337.275 148.298 337.288 148.312 337.308C148.443 337.427 148.574 337.552 148.706 337.677C148.726 337.69 148.745 337.703 148.759 337.723C148.89 337.848 149.021 337.967 149.153 338.092C149.173 338.105 149.192 338.118 149.206 338.138C149.337 338.263 149.468 338.381 149.6 338.506C149.62 338.52 149.639 338.533 149.653 338.552C149.784 338.671 149.915 338.796 150.047 338.915C150.067 338.928 150.086 338.941 150.1 338.961C150.231 339.079 150.362 339.204 150.494 339.323C150.514 339.336 150.533 339.349 150.547 339.369C150.678 339.487 150.809 339.612 150.941 339.737C150.961 339.751 150.98 339.764 150.994 339.783C151.125 339.909 151.256 340.027 151.388 340.152C151.408 340.165 151.427 340.178 151.441 340.198C151.572 340.323 151.703 340.442 151.835 340.567C151.855 340.58 151.874 340.593 151.888 340.613C152.019 340.731 152.15 340.857 152.282 340.975C152.302 340.988 152.321 341.001 152.335 341.021C152.466 341.14 152.597 341.265 152.729 341.383C152.749 341.396 152.768 341.41 152.782 341.429C152.913 341.554 153.044 341.673 153.176 341.798C153.196 341.811 153.215 341.824 153.229 341.844C153.36 341.963 153.491 342.088 153.623 342.213C153.643 342.226 153.662 342.239 153.676 342.259C153.807 342.384 153.938 342.502 154.07 342.627C154.09 342.641 154.109 342.654 154.123 342.674C154.254 342.792 154.385 342.917 154.517 343.036C154.537 343.049 154.556 343.062 154.57 343.082C154.701 343.2 154.832 343.325 154.964 343.444C154.984 343.457 155.003 343.47 155.017 343.49C155.148 343.615 155.279 343.733 155.411 343.859C155.431 343.872 155.45 343.885 155.464 343.905C155.595 344.023 155.726 344.148 155.858 344.273C155.878 344.286 155.897 344.3 155.91 344.319C156.042 344.444 156.173 344.563 156.305 344.688C156.325 344.701 156.344 344.714 156.357 344.734C156.489 344.853 156.62 344.978 156.752 345.096C156.772 345.109 156.791 345.123 156.804 345.142C156.936 345.261 157.067 345.386 157.199 345.504C157.219 345.518 157.238 345.531 157.251 345.55C157.383 345.676 157.514 345.794 157.646 345.919C157.666 345.932 157.685 345.945 157.698 345.965C157.83 346.09 157.961 346.209 158.093 346.334C158.113 346.347 158.132 346.36 158.145 346.38C158.277 346.505 158.408 346.624 158.54 346.749C158.56 346.762 158.579 346.775 158.592 346.795C158.724 346.913 158.855 347.038 158.987 347.157C159.007 347.17 159.026 347.183 159.039 347.203C159.171 347.321 159.302 347.446 159.434 347.565C159.454 347.578 159.473 347.591 159.486 347.611C159.618 347.736 159.749 347.855 159.881 347.98C159.901 347.993 159.92 348.006 159.933 348.026C160.065 348.144 160.196 348.269 160.328 348.394C160.348 348.408 160.367 348.421 160.38 348.44C160.512 348.566 160.643 348.684 160.775 348.809C160.795 348.822 160.814 348.835 160.827 348.855C160.959 348.974 161.09 349.099 161.222 349.217C161.242 349.23 161.261 349.244 161.274 349.263C161.406 349.382 161.537 349.507 161.669 349.625C161.689 349.639 161.708 349.652 161.721 349.672C161.853 349.797 161.984 349.915 162.116 350.04C162.136 350.053 162.155 350.067 162.168 350.086C162.3 350.205 162.431 350.33 162.563 350.455C162.583 350.468 162.602 350.481 162.615 350.501C162.747 350.626 162.878 350.745 163.01 350.87C167.394 354.701 173.6 356.492 181.633 356.248C188.679 356.031 194.878 353.865 200.222 349.77H200.512V350.185L200.959 350.172V350.593L201.412 350.58V351.001L201.866 350.988V351.41L202.319 351.396V351.818L202.773 351.805V352.226L203.227 352.213V352.634L203.68 352.621V353.042L204.134 353.029V353.45L204.587 353.437V353.858L224.426 353.253C222.934 348.961 222.783 344.01 223.973 338.401C224.571 335.597 225.143 332.904 225.688 330.31C225.708 330.33 225.734 330.35 225.754 330.369C225.905 330.508 226.05 330.646 226.208 330.778C226.359 330.916 226.503 331.054 226.654 331.186C226.806 331.324 226.95 331.462 227.108 331.594C227.259 331.732 227.404 331.87 227.562 332.002C227.713 332.14 227.857 332.279 228.015 332.41C228.166 332.549 228.311 332.687 228.469 332.818C228.62 332.957 228.765 333.095 228.916 333.227C229.067 333.365 229.212 333.503 229.369 333.635C229.521 333.773 229.665 333.911 229.823 334.043C229.974 334.181 230.119 334.319 230.277 334.451C230.428 334.589 230.572 334.728 230.723 334.859C230.875 334.997 231.019 335.136 231.177 335.267C231.328 335.406 231.473 335.544 231.631 335.676C231.782 335.814 231.926 335.952 232.084 336.084C232.235 336.222 232.38 336.36 232.538 336.492C232.689 336.63 232.834 336.768 232.985 336.9C233.136 337.038 233.281 337.177 233.438 337.308C233.59 337.446 233.734 337.585 233.892 337.716C234.043 337.855 234.188 337.993 234.346 338.125C234.497 338.263 234.641 338.401 234.799 338.533C234.95 338.671 235.095 338.809 235.246 338.941C235.397 339.079 235.542 339.217 235.7 339.349C235.851 339.487 235.995 339.626 236.153 339.757C236.304 339.895 236.449 340.034 236.607 340.165C236.758 340.304 236.903 340.442 237.06 340.573C237.212 340.712 237.356 340.85 237.507 340.982C237.659 341.12 237.803 341.258 237.961 341.39C238.112 341.528 238.257 341.666 238.415 341.798C238.566 341.936 238.71 342.074 238.868 342.206C239.019 342.344 239.164 342.483 239.322 342.614C239.473 342.753 239.617 342.891 239.769 343.022C239.92 343.161 240.064 343.299 240.222 343.431C240.373 343.569 240.518 343.707 240.676 343.839C242.319 345.36 244.344 346.762 246.769 348.052C254.059 351.916 262.342 353.707 271.611 353.424C281.497 353.121 289.688 349.836 296.176 343.569C302.053 337.815 304.938 331.258 304.84 323.898C304.978 324.03 305.122 324.155 305.26 324.28C305.412 324.418 305.556 324.556 305.714 324.688C305.865 324.826 306.01 324.965 306.168 325.096C306.319 325.235 306.463 325.373 306.621 325.504C306.772 325.643 306.917 325.781 307.075 325.913C307.226 326.051 307.371 326.189 307.522 326.321C307.673 326.459 307.818 326.597 307.975 326.729C308.126 326.867 308.271 327.005 308.429 327.137C308.58 327.275 308.725 327.414 308.882 327.545C309.034 327.683 309.178 327.822 309.336 327.953C309.487 328.092 309.632 328.23 309.783 328.362C309.934 328.5 310.079 328.638 310.237 328.77C310.388 328.908 310.532 329.046 310.684 329.178C310.835 329.316 310.979 329.454 311.137 329.586C311.288 329.724 311.433 329.863 311.591 329.994C311.742 330.132 311.887 330.271 312.038 330.402C312.189 330.541 312.334 330.679 312.491 330.811C312.642 330.949 312.787 331.087 312.945 331.219C313.096 331.357 313.241 331.495 313.398 331.627C313.55 331.765 313.694 331.903 313.852 332.035C314.003 332.173 314.148 332.312 314.299 332.443C314.45 332.581 314.595 332.72 314.753 332.851C314.904 332.99 315.048 333.128 315.206 333.259C315.357 333.398 315.502 333.536 315.66 333.668C315.811 333.806 315.956 333.944 316.107 334.076C316.258 334.214 316.403 334.352 316.56 334.484C316.711 334.622 316.856 334.76 317.014 334.892C317.165 335.03 317.31 335.169 317.467 335.3C317.619 335.439 317.763 335.577 317.921 335.708C318.072 335.847 318.217 335.985 318.368 336.117C318.519 336.255 318.664 336.393 318.822 336.525C318.973 336.663 319.117 336.801 319.275 336.933C319.426 337.071 319.571 337.209 319.729 337.341C319.88 337.479 320.024 337.618 320.182 337.749C320.333 337.888 320.478 338.026 320.629 338.157C320.78 338.296 320.925 338.434 321.083 338.566C321.234 338.704 321.379 338.842 321.536 338.974C321.688 339.112 321.832 339.25 321.99 339.382C322.141 339.52 322.286 339.658 322.444 339.79C322.595 339.928 322.739 340.067 322.891 340.198C323.042 340.336 323.186 340.475 323.344 340.606C323.495 340.745 323.64 340.883 323.798 341.015C323.949 341.153 324.093 341.291 324.251 341.423C324.402 341.561 324.547 341.699 324.705 341.831C324.856 341.969 325.001 342.107 325.152 342.239C325.303 342.377 325.448 342.516 325.605 342.647C326.171 343.167 326.749 343.668 327.354 344.135C333.421 349.066 341.06 351.396 350.282 351.113C361.155 350.784 370.424 346.347 378.082 337.815C383.064 332.312 386.062 327.051 387.087 322.042C387.173 322.121 387.265 322.193 387.35 322.272C387.502 322.41 387.653 322.549 387.804 322.68C387.955 322.818 388.106 322.957 388.257 323.088C388.409 323.227 388.56 323.365 388.711 323.497C388.862 323.635 389.013 323.773 389.158 323.905C389.309 324.043 389.46 324.181 389.612 324.313C389.763 324.451 389.914 324.589 390.065 324.721C390.216 324.859 390.368 324.998 390.519 325.129C390.67 325.267 390.821 325.406 390.972 325.537C391.124 325.676 391.275 325.814 391.419 325.946C391.571 326.084 391.722 326.222 391.873 326.354C392.024 326.492 392.175 326.63 392.32 326.762C392.471 326.9 392.622 327.038 392.773 327.17C392.925 327.308 393.076 327.446 393.227 327.578C393.378 327.716 393.529 327.855 393.674 327.986C393.825 328.125 393.976 328.263 394.128 328.394C394.279 328.533 394.43 328.671 394.581 328.803C394.732 328.941 394.884 329.079 395.035 329.211C395.186 329.349 395.337 329.487 395.488 329.619C395.64 329.757 395.791 329.895 395.935 330.027C396.086 330.165 396.238 330.304 396.389 330.435C396.54 330.574 396.691 330.712 396.842 330.843C396.994 330.982 397.145 331.12 397.296 331.252C397.447 331.39 397.598 331.528 397.743 331.66C397.894 331.798 398.045 331.936 398.197 332.068C398.348 332.206 398.499 332.344 398.65 332.476C398.801 332.614 398.953 332.753 399.104 332.884C399.255 333.023 399.406 333.161 399.557 333.292C399.709 333.431 399.86 333.569 400.004 333.701C400.155 333.839 400.307 333.977 400.458 334.109C400.609 334.247 400.76 334.385 400.911 334.517C401.063 334.655 401.214 334.793 401.365 334.925C401.516 335.063 401.667 335.202 401.819 335.333C401.97 335.471 402.121 335.61 402.266 335.741C402.417 335.88 402.568 336.018 402.719 336.15C402.87 336.288 403.022 336.426 403.173 336.558C403.324 336.696 403.475 336.834 403.626 336.966C403.777 337.104 403.929 337.242 404.08 337.374C404.231 337.512 404.382 337.651 404.527 337.782C404.678 337.92 404.829 338.059 404.98 338.19C405.132 338.329 405.283 338.467 405.434 338.599C405.585 338.737 405.736 338.875 405.888 339.007C406.039 339.145 406.19 339.283 406.341 339.415C406.486 339.553 406.644 339.691 406.788 339.823C406.939 339.961 407.091 340.099 407.242 340.231C407.393 340.369 407.544 340.508 407.695 340.639C413.98 346.571 422.433 349.382 433.049 349.059C442.936 348.756 451.751 345.827 459.501 340.264L482.837 222.858L482.265 223.063L482.015 222.226ZM273.51 276.913C273.602 279.678 273.885 282.305 274.352 284.8C274.28 284.734 274.201 284.662 274.122 284.596C274.076 284.557 274.036 284.511 273.99 284.471C273.892 284.379 273.78 284.28 273.668 284.188C273.622 284.148 273.583 284.102 273.537 284.063C273.438 283.971 273.326 283.872 273.215 283.78C273.169 283.74 273.129 283.694 273.083 283.655C272.985 283.563 272.873 283.464 272.761 283.372C272.715 283.332 272.676 283.286 272.63 283.247C272.531 283.154 272.419 283.056 272.307 282.963C272.261 282.924 272.222 282.878 272.176 282.838C272.077 282.746 271.966 282.647 271.854 282.555C271.808 282.516 271.768 282.47 271.722 282.43C271.624 282.338 271.512 282.239 271.4 282.147C271.354 282.108 271.315 282.062 271.269 282.022C271.17 281.93 271.058 281.831 270.947 281.739C270.901 281.7 270.861 281.653 270.815 281.614C270.717 281.522 270.605 281.423 270.493 281.331C270.447 281.291 270.408 281.245 270.362 281.206C270.263 281.114 270.151 281.015 270.04 280.923C269.994 280.883 269.954 280.837 269.908 280.798C269.81 280.705 269.698 280.607 269.586 280.515C269.54 280.475 269.501 280.429 269.455 280.389C269.356 280.297 269.244 280.199 269.132 280.106C269.086 280.067 269.047 280.021 269.001 279.981C268.902 279.889 268.791 279.79 268.679 279.698C268.633 279.659 268.593 279.613 268.547 279.573C268.449 279.481 268.337 279.382 268.225 279.29C268.179 279.251 268.14 279.204 268.094 279.165C268.054 279.132 268.015 279.093 267.976 279.06C269.382 278.092 271.216 277.381 273.471 276.94L273.51 276.913ZM234.424 286.913C234.576 287.052 234.72 287.19 234.878 287.322C235.029 287.46 235.174 287.598 235.332 287.73C235.483 287.868 235.627 288.006 235.785 288.138C235.936 288.276 236.081 288.414 236.239 288.546C236.39 288.684 236.534 288.823 236.692 288.954C236.843 289.092 236.988 289.231 237.146 289.362C237.297 289.501 237.442 289.639 237.599 289.771C237.751 289.909 237.895 290.047 238.053 290.179C238.204 290.317 238.349 290.455 238.507 290.587C238.658 290.725 238.802 290.863 238.954 290.995C239.105 291.133 239.249 291.272 239.407 291.403C239.558 291.541 239.703 291.68 239.861 291.811C240.012 291.95 240.156 292.088 240.314 292.22C240.465 292.358 240.61 292.496 240.768 292.628C240.919 292.766 241.064 292.904 241.221 293.036C241.373 293.174 241.517 293.312 241.675 293.444C241.852 293.609 242.023 293.773 242.214 293.925L242.253 294.418C241.793 294.892 241.287 295.347 240.735 295.788C238.152 297.828 235.187 299.092 231.854 299.599C232.985 294.05 233.826 289.79 234.385 286.808C234.411 286.834 234.444 286.854 234.47 286.881L234.424 286.913Z" fill="#326295"/>
<path d="M116.042 211.437C116.469 225.426 109.153 237.045 94.0932 246.295C104.874 251.048 110.455 259.613 110.829 271.983C111.211 284.484 106.773 295.333 97.5311 304.537C87.5591 314.379 74.4253 319.553 58.1099 320.047C50.8199 320.271 43.2472 319.389 35.3919 317.394C28.7789 315.616 23.5858 313.602 19.8061 311.364L35.0763 233.78C36.2398 227.302 36.391 222.095 35.5299 218.158L61.2323 209.198L54.9217 239.679L58.8132 239.56C66.9709 239.31 73.8534 237.928 79.4672 235.4C83.615 233.536 87.053 230.772 89.7941 227.091C93.002 222.786 94.5205 217.842 94.3561 212.273C93.988 200.271 85.0349 194.531 67.4837 195.064C52.8971 195.512 41.801 200.679 34.1823 210.574C30.258 215.775 27.7534 220.989 26.682 226.229C26.1298 228.355 25.7683 232.825 25.6039 239.639C20.7395 234.34 18.1824 231.568 17.9326 231.325C14.8497 227.454 13.2589 223.971 13.1603 220.877C12.8185 209.62 17.7157 199.929 27.8652 191.812C38.3631 183.194 52.0162 178.626 68.8247 178.112C83.1615 177.678 94.7571 180.851 103.625 187.645C111.612 193.971 115.746 201.891 116.036 211.423L116.042 211.437ZM88.2033 272.16C87.8681 261.114 80.9528 255.419 67.4574 255.097C63.6185 254.965 58.3794 255.557 51.7401 256.868L43.2143 299.896C48.4534 301.456 53.3046 302.167 57.7549 302.035C67.0235 301.752 74.5896 298.388 80.4532 291.943C85.8369 286.005 88.4203 279.409 88.2033 272.167V272.16Z" fill="white"/>
<path d="M193.911 246.229C192.971 251.957 189.31 269.85 182.927 299.896C181.737 305.505 181.888 310.455 183.381 314.748L163.548 315.353L163.489 307.368C157.258 314.004 149.632 317.453 140.613 317.73C132.581 317.973 126.369 316.183 121.991 312.351C117.606 308.52 115.312 303.201 115.102 296.393C114.878 289.093 117.573 282.193 123.194 275.709C126.783 271.634 131.319 268.401 136.814 266.005C140.357 264.537 146.543 262.615 155.378 260.238C161.879 258.553 166.105 257.19 168.058 256.137C172.199 254.03 174.336 251.055 174.467 247.21C174.592 243.115 171.805 241.16 166.125 241.331C162.05 241.456 157.632 242.832 152.893 245.452C146.924 248.606 141.928 253.095 137.905 258.915C134.789 254.057 133.185 250.14 133.093 247.17C132.922 241.483 136.729 236.532 144.518 232.325C151.821 228.388 159.979 226.282 169.004 226.005C185.563 225.498 194.01 230.758 194.345 241.772C194.385 243.135 194.247 244.629 193.925 246.242L193.911 246.229ZM169.248 271.14C162.273 273.596 155.358 276.11 148.508 278.691C140.094 282.687 135.986 287.802 136.17 294.023C136.229 296.018 137.123 297.829 138.839 299.461C140.561 301.094 142.592 301.871 144.939 301.798C152.104 301.456 157.823 298.289 162.089 292.299C166.007 286.821 168.386 279.764 169.241 271.14H169.248Z" fill="white"/>
<path d="M269.802 246.328L253.493 252.957C254.065 243.28 248.787 238.606 237.664 238.948C228.028 239.244 223.301 242.608 223.499 249.04C223.564 251.265 224.61 253.062 226.634 254.425C228.652 255.788 233.102 257.73 239.985 260.245C248.491 263.332 254.269 266.315 257.326 269.191C261.395 272.911 263.538 278.171 263.742 284.978C263.972 292.529 261.079 299.244 255.078 305.123C248.59 311.39 240.399 314.675 230.513 314.978C221.244 315.261 212.961 313.47 205.671 309.606C198.381 305.742 194.641 300.837 194.463 294.899C194.365 291.68 196.363 286.235 200.458 278.553C200.702 282.509 202.996 286.716 207.334 291.166C212.961 297.19 220.225 300.067 229.119 299.79C233.569 299.652 237.421 298.303 240.682 295.722C243.942 293.148 245.52 290.001 245.408 286.288C245.316 283.194 242.943 280.666 238.315 278.698C234.555 277.078 228.166 274.425 219.147 270.732C210.384 267.407 205.855 260.732 205.553 250.706C205.316 242.911 208.09 236.598 213.882 231.779C219.673 226.96 227.015 224.412 235.916 224.136C245.06 223.859 252.632 225.735 258.627 229.758C264.622 233.787 268.35 239.31 269.802 246.328Z" fill="white"/>
<path d="M349.473 254.866L295.478 285.314C296.556 288.256 298.489 290.738 301.27 292.753C304.313 295.143 307.62 296.275 311.209 296.17C316.77 295.998 322.002 293.115 326.906 287.513C331.804 281.917 335.301 274.873 337.398 266.38C343.202 270.291 346.18 274.596 346.324 279.303C346.515 285.617 343.379 292.338 336.918 299.474C329.26 308.006 319.991 312.443 309.118 312.772C297.996 313.115 289.174 309.665 282.64 302.43C276.869 295.794 273.825 287.216 273.51 276.696C273.102 263.207 276.81 251.015 284.645 240.12C293.434 228.211 304.754 222.042 318.597 221.614C328.359 221.318 335.997 224.333 341.506 230.673C347.015 237.006 349.67 245.077 349.48 254.866H349.473ZM329.963 247.842C329.871 244.873 328.773 242.272 326.663 240.047C324.553 237.822 322.016 236.749 319.051 236.841C312.497 237.039 306.851 240.436 302.104 247.019C298.075 252.839 295.498 259.731 294.381 267.697L329.956 247.842H329.963Z" fill="white"/>
<path d="M441.595 184.603L418.259 302.009C410.509 307.572 401.694 310.508 391.807 310.804C380.56 311.146 371.745 307.98 365.355 301.298C358.966 294.616 355.594 285.399 355.239 273.642C354.798 259.159 358.677 246.407 366.88 235.38C374.604 224.985 383.222 219.646 392.741 219.356C397.934 219.198 402.167 220.245 405.454 222.496C408.734 224.748 410.43 227.427 410.522 230.521C410.627 233.991 408.543 238.639 404.264 244.465C402.864 239.06 399.63 236.427 394.561 236.585C389 236.756 384.248 241.114 380.304 249.652C376.589 257.697 374.874 266.354 375.156 275.636C375.347 281.825 376.912 286.545 379.857 289.804C382.801 293.056 386.555 294.616 391.13 294.478C394.588 294.372 397.901 293.47 401.069 291.759L418.114 205.578C419.074 200.594 418.883 196.447 417.549 193.142L441.595 184.603Z" fill="white"/>
</g>
<path d="M256.728 28.3348C254.951 23.7534 278.735 24.0602 278.514 29.2608" stroke="#DDB3E8" stroke-width="50"/>
<path d="M277.225 32.2254C274.112 31.6964 270.965 31.3675 267.851 31.2117C264.117 31.0305 260.407 31.0508 256.729 31.292C257.222 28.08 261.72 25.6685 267.109 25.8058C272.499 25.943 277.236 28.8098 277.225 32.2254Z" fill="#326295"/>
<path d="M347.331 159.672C347.331 159.672 344.478 162.059 337.895 162.992C333.73 163.574 329.172 162.674 325.68 161.647C328.063 156.292 330.074 151.664 330.074 151.664L347.331 159.672Z" fill="#2A2F33"/>
<path d="M176.297 168.885C173.477 173.377 167.512 182.286 162.511 185.699C157.801 188.909 153.872 188.857 153.182 186.648C153.182 186.648 157.404 172.929 176.297 168.885Z" fill="#2A2F33"/>
<path d="M347.331 159.672L330.074 151.664C330.074 151.664 328.063 156.292 325.679 161.647C323.619 166.331 321.276 171.582 319.769 174.816C316.533 181.756 306.351 199.687 297.699 200.375C289.038 201.054 274.63 194.2 261.642 188.281C248.654 182.372 230.377 172.003 195.199 168.218C187.665 167.414 181.44 167.791 176.297 168.885C157.404 172.929 153.182 186.648 153.182 186.648C153.183 186.629 153.183 186.61 153.164 186.59C153.165 186.581 153.156 186.552 153.147 186.523C153.138 186.504 153.139 186.475 153.13 186.446C152.843 185.31 151.737 179.186 157.252 166.897C162.564 155.044 182.372 124.833 182.372 124.833L182.381 124.834C183.105 124.594 214.09 114.666 251.562 123.026C289.48 131.484 318.329 146.122 318.329 146.122C318.329 146.122 335.269 94.4915 319.212 60.7655C313.948 49.7043 304.848 42.0571 294.259 37.3094C317.582 47.0412 331.429 62.0525 337.776 73.7537C343.759 84.7757 347.698 94.1765 349.724 115.24C351.567 134.481 347.331 159.672 347.331 159.672Z" fill="#326295"/>
<path d="M318.329 146.122C318.329 146.122 289.48 131.484 251.562 123.027C214.09 114.666 183.105 124.594 182.382 124.824L182.372 124.824C183.817 92.4719 198.48 64.9343 212.847 50.0865C224.612 37.9471 240.225 32.3741 256.728 31.2921C260.406 31.0509 264.117 31.0306 267.851 31.2118C270.964 31.3676 274.112 31.6965 277.225 32.2255C283.052 33.2064 288.785 34.8642 294.146 37.2588C294.184 37.2789 294.222 37.2895 294.26 37.3096C304.848 42.0572 313.948 49.7044 319.212 60.7656C335.269 94.4916 318.329 146.122 318.329 146.122Z" fill="#66A3E0"/>
<defs>
<linearGradient id="paint0_linear_44_2" x1="252.674" y1="88.2786" x2="252.674" y2="404.847" gradientUnits="userSpaceOnUse">
<stop stop-color="#DFB2E8"/>
<stop offset="1" stop-color="#A2B4D8"/>
</linearGradient>
<linearGradient id="paint1_linear_44_2" x1="252.674" y1="88.2786" x2="252.674" y2="404.847" gradientUnits="userSpaceOnUse">
<stop stop-color="#DFB2E8"/>
<stop offset="1" stop-color="#A2B4D8"/>
</linearGradient>
<linearGradient id="paint2_linear_44_2" x1="249.988" y1="164.525" x2="249.988" y2="370.633" gradientUnits="userSpaceOnUse">
<stop stop-color="#DFB2E8"/>
<stop offset="1" stop-color="#A2B4D8"/>
</linearGradient>
<clipPath id="clip0_44_2">
<rect width="500" height="206.128" fill="white" transform="translate(0 164.551)"/>
</clipPath>
</defs>
</svg>
