<svg xmlns="http://www.w3.org/2000/svg" xmlns:xlink="http://www.w3.org/1999/xlink" width="244" height="48" fill="none" xmlns:v="https://vecta.io/nano"><style><![CDATA[.B{fill:#f1f1f1}]]></style><g clip-path="url(#D)"><path d="M35.351 6.506C34.97 2.736 32.002 0 28.287 0c-2.474 0-4.74 1.197-6.015 3.116C21.008 1.173 18.835 0 16.4 0c-3.714 0-6.683 2.735-7.063 6.506-.03.167-.154 1.043.222 2.472.506 1.927 1.631 3.692 3.265 5.126l-.956-.338c-2.098-.745-4.244-.876-6.206-.379-1.36.344-2.025.827-2.148.924-2.932 1.961-3.771 5.455-1.994 8.311 1.165 1.872 3.173 3.024 5.382 3.136-.975 1.83-.88 4.102.304 6.005 1.777 2.856 5.455 3.928 8.751 2.552.152-.051.935-.344 1.935-1.265a8.76 8.76 0 0 0 2.277-3.417v7.677c-4.964 1.011-8.7 5.413-8.7 10.691h4.35c0-3.615 2.921-6.545 6.525-6.545s6.525 2.93 6.525 6.545h4.35c0-5.278-3.736-9.68-8.7-10.691v-7.677c.492 1.322 1.263 2.483 2.277 3.417 1 .921 1.783 1.214 1.935 1.265 3.296 1.376 6.974.304 8.751-2.552 1.184-1.903 1.279-4.175.304-6.005 2.209-.111 4.217-1.263 5.382-3.136 1.776-2.856.937-6.349-1.994-8.311-.123-.097-.788-.58-2.148-.924-1.961-.496-4.108-.365-6.206.379l-.955.338c1.633-1.435 2.758-3.199 3.264-5.126.376-1.429.252-2.305.223-2.472z" fill="url(#A)"/><path fill-rule="evenodd" d="M33.864 6.713l-.006-.056C33.552 3.628 31.207 1.5 28.287 1.5c-2 0-3.784.968-4.766 2.446l-1.263 1.901-1.244-1.914C20.036 2.43 18.344 1.5 16.4 1.5c-2.919 0-5.265 2.127-5.571 5.156l-.006.058-.01.057c0 0-.112.652.196 1.825.423 1.611 1.373 3.123 2.804 4.38l-1.491 2.541-.956-.338c-1.848-.656-3.692-.755-5.337-.339-1.092.276-1.576.639-1.589.649l-.044.035-.048.032c-2.313 1.548-2.87 4.157-1.555 6.272.897 1.442 2.45 2.342 4.184 2.43l2.359.119-1.111 2.085c-.707 1.328-.665 3.03.254 4.508 1.353 2.175 4.219 3.079 6.899 1.96l.05-.021.051-.017c.017-.006.597-.21 1.397-.947.834-.767 1.475-1.728 1.887-2.836l2.906.523v8.903l-1.201.245c-3.796.773-6.763 3.853-7.381 7.721h1.371c.701-3.724 3.961-6.545 7.886-6.545s7.185 2.822 7.886 6.545H31.6c-.618-3.868-3.584-6.948-7.381-7.721l-1.201-.245v-8.902l2.906-.523a7.26 7.26 0 0 0 1.887 2.836c.799.736 1.38.941 1.397.947l.051.017.049.021c2.68 1.119 5.546.215 6.899-1.96.919-1.478.961-3.18.253-4.507l-1.111-2.085 2.359-.119c1.734-.087 3.287-.987 4.184-2.43 1.316-2.115.759-4.724-1.555-6.272l-.048-.032-.044-.035c-.012-.009-.496-.373-1.589-.649-1.645-.416-3.489-.317-5.336.339l-.956.339-1.491-2.541c1.431-1.257 2.381-2.769 2.803-4.38.303-1.155.2-1.806.196-1.829l-.01-.056zM33.117 46.5c.067.49.102.991.102 1.5h-4.35c0-3.615-2.921-6.545-6.525-6.545s-6.525 2.93-6.525 6.545h-4.35c0-.509.035-1.01.102-1.5.63-4.595 4.113-8.278 8.598-9.191v-7.677c-.357.96-.862 1.836-1.5 2.601-.24.288-.5.56-.777.816-1 .921-1.783 1.214-1.935 1.265-3.296 1.376-6.974.304-8.751-2.552-.884-1.421-1.161-3.048-.838-4.543a5.63 5.63 0 0 1 .535-1.462c-.529-.027-1.047-.113-1.544-.255-1.579-.45-2.952-1.457-3.838-2.881-1.776-2.856-.937-6.349 1.994-8.311.123-.097.788-.58 2.148-.924 1.385-.351 2.863-.388 4.351-.117.618.112 1.239.278 1.855.497l.956.338a11.78 11.78 0 0 1-.802-.773c-.42-.446-.797-.918-1.126-1.411a9.73 9.73 0 0 1-1.337-2.942c-.375-1.429-.252-2.306-.222-2.472C9.718 2.735 12.686 0 16.4 0c1.884 0 3.61.702 4.881 1.92.372.356.705.757.991 1.197.288-.433.626-.829 1.006-1.183C24.58.718 26.371 0 28.287 0c3.715 0 6.683 2.735 7.064 6.506.029.167.153 1.043-.223 2.472-.272 1.037-.723 2.026-1.336 2.942-.33.493-.706.964-1.126 1.41a11.75 11.75 0 0 1-.801.773l.955-.338c.616-.219 1.236-.384 1.855-.497 1.488-.271 2.965-.233 4.351.117 1.36.344 2.025.827 2.148.924 2.932 1.961 3.771 5.455 1.994 8.311-.886 1.424-2.259 2.431-3.838 2.881a6.91 6.91 0 0 1-1.544.255 5.63 5.63 0 0 1 .535 1.462c.322 1.495.046 3.122-.838 4.543-1.777 2.856-5.455 3.928-8.751 2.552-.152-.051-.935-.344-1.935-1.265-.277-.255-.537-.528-.777-.816-.638-.765-1.143-1.64-1.5-2.601v7.677c4.485.913 7.968 4.596 8.598 9.191z" fill="url(#B)"/></g><use xlink:href="#E" class="B"/><use xlink:href="#E" fill="url(#C)"/><path d="M88.839 36.002V9.156h4.77v26.846h-4.77z" class="B"/><path d="M88.839 36.002V9.156h4.77v26.846h-4.77z" fill="url(#C)"/><use xlink:href="#F" class="B"/><use xlink:href="#F" fill="url(#C)"/><use xlink:href="#G" class="B"/><use xlink:href="#G" fill="url(#C)"/><use xlink:href="#H" class="B"/><use xlink:href="#H" fill="url(#C)"/><use xlink:href="#I" class="B"/><use xlink:href="#I" fill="url(#C)"/><use xlink:href="#J" class="B"/><use xlink:href="#J" fill="url(#C)"/><use xlink:href="#K" class="B"/><use xlink:href="#K" fill="url(#C)"/><path d="M217.295 36.002V9.156h4.77v26.846h-4.77z" class="B"/><path d="M217.295 36.002V9.156h4.77v26.846h-4.77z" fill="url(#C)"/><use xlink:href="#L" class="B"/><use xlink:href="#L" fill="url(#C)"/><defs><linearGradient id="A" x1=".594" y1="24" x2="44.094" y2="24" gradientUnits="userSpaceOnUse"><stop stop-color="#a6ccdc"/><stop offset="1" stop-color="#c0e9fa"/></linearGradient><linearGradient id="B" x1=".594" y1="24" x2="44.094" y2="24" gradientUnits="userSpaceOnUse"><stop stop-color="#e5eff3"/><stop offset=".5" stop-color="#a2d4ea"/><stop offset="1" stop-color="#e5eff3"/></linearGradient><linearGradient id="C" x1="63.594" y1="22.502" x2="243.594" y2="22.502" gradientUnits="userSpaceOnUse"><stop stop-color="#e5eff3"/><stop offset=".484" stop-color="#a2d4ea" stop-opacity=".5"/><stop offset="1" stop-color="#e5eff3"/></linearGradient><clipPath id="D"><path fill="#fff" transform="translate(.594)" d="M0 0h43.5v48H0z"/></clipPath><path id="E" d="M75.009 36.364c-2.285 0-4.276-.505-5.975-1.515-1.687-1.01-3.002-2.48-3.943-4.408-.93-1.94-1.395-4.288-1.395-7.043 0-2.652.453-4.942 1.36-6.871.918-1.929 2.227-3.415 3.926-4.46 1.711-1.045 3.748-1.567 6.113-1.567 1.71 0 3.278.327 4.701.982s2.566 1.63 3.427 2.927c.872 1.297 1.32 2.904 1.343 4.822h-4.925c-.034-1.022-.276-1.843-.723-2.462s-1.033-1.068-1.756-1.343-1.515-.413-2.376-.413c-1.182 0-2.239.31-3.168.93-.918.62-1.647 1.556-2.187 2.807s-.809 2.824-.809 4.718c0 2.009.276 3.633.827 4.873.551 1.228 1.297 2.124 2.239 2.686.941.551 1.998.827 3.168.827 1.102 0 2.003-.161 2.704-.482.7-.333 1.223-.786 1.567-1.36s.528-1.228.551-1.963H84.6c-.034 1.71-.459 3.191-1.274 4.443-.804 1.24-1.917 2.198-3.341 2.876-1.424.666-3.082.999-4.977.999z"/><path id="F" d="M106.724 36.26c-1.78 0-3.33-.373-4.65-1.119s-2.342-1.843-3.065-3.289c-.723-1.458-1.085-3.243-1.085-5.355 0-1.998.379-3.72 1.136-5.166.769-1.447 1.825-2.554 3.168-3.323 1.343-.781 2.864-1.171 4.563-1.171 1.837 0 3.41.39 4.719 1.171 1.32.769 2.33 1.877 3.03 3.323s1.051 3.168 1.051 5.166c0 2.112-.391 3.897-1.171 5.355-.781 1.447-1.843 2.543-3.186 3.289-1.332.746-2.835 1.119-4.511 1.119zm.068-3.978c1.171 0 2.136-.436 2.893-1.309.77-.872 1.154-2.365 1.154-4.477 0-1.963-.384-3.398-1.154-4.305-.769-.918-1.756-1.378-2.961-1.378a3.6 3.6 0 0 0-2.893 1.36c-.758.907-1.137 2.348-1.137 4.322 0 2.02.39 3.49 1.171 4.408s1.756 1.378 2.927 1.378z"/><path id="G" d="M124.055 36.002l-6.44-18.787h5.235l2.462 9.419 1.206 4.804h.155l1.205-4.787 2.462-9.436h5.218l-6.406 18.787h-5.097z"/><path id="H" d="M146.493 36.26c-1.86 0-3.456-.373-4.788-1.119-1.331-.758-2.353-1.854-3.065-3.289-.712-1.447-1.067-3.203-1.067-5.269 0-2.089.373-3.857 1.119-5.304.758-1.447 1.808-2.549 3.151-3.306 1.355-.758 2.928-1.137 4.718-1.137 1.745 0 3.221.339 4.426 1.016 1.217.666 2.141 1.659 2.772 2.979.632 1.309.948 2.916.948 4.822l-.035.878-.052.982h-12.364c.115 1.722.534 2.985 1.258 3.788.734.804 1.687 1.205 2.858 1.205 1.033 0 1.82-.224 2.359-.671s.878-.993 1.016-1.636h4.563c-.103 1.251-.493 2.336-1.171 3.254-.665.907-1.567 1.602-2.703 2.084-1.125.482-2.44.723-3.943.723zm-2.205-11.658h5.786c-.046-1.286-.361-2.262-.947-2.927-.574-.666-1.492-.999-2.755-.999-1.389 0-2.417.482-3.082 1.447-.655.953-1.011 2.296-1.068 4.029.092-.597.304-1.005.637-1.223s.809-.327 1.429-.327z"/><path id="I" d="M158.875 36.002V17.198h4.185l.448 7.319-.345-1.068c.103-.884.276-1.722.517-2.514.252-.792.591-1.498 1.016-2.118.436-.62.97-1.108 1.601-1.464.643-.356 1.395-.534 2.256-.534a6.91 6.91 0 0 1 .689.035c.241.023.453.063.637.12v4.994a6.02 6.02 0 0 0-1.188-.224 9.74 9.74 0 0 0-1.137-.069c-.539 0-1.067.075-1.584.224-.517.138-.976.356-1.378.654a3.09 3.09 0 0 0-.947 1.085v12.364h-4.77z"/><path id="J" d="M174.677 36.002V22.777c0-.482.086-.861.258-1.137a1.3 1.3 0 0 1 .775-.568l-1.033-3.1v-2.996c0-1.469.293-2.692.878-3.668s1.366-1.705 2.342-2.187c.988-.482 2.072-.723 3.255-.723l1.653.069 1.154.138-.018 4.236c-.252-.092-.568-.167-.947-.224-.367-.057-.803-.086-1.308-.086-.483 0-.896.086-1.24.258-.345.161-.609.459-.792.896-.172.425-.259 1.027-.259 1.808v20.509h-4.718zm-2.548-14.93v-3.874h11.106v3.874h-11.106zm14.843 14.93V17.198h4.753l-.017 18.804h-4.736zm2.394-21.249c-.827 0-1.527-.287-2.101-.861s-.861-1.309-.861-2.204.287-1.624.861-2.187c.585-.574 1.286-.861 2.101-.861s1.509.287 2.083.861c.586.562.879 1.291.879 2.187s-.293 1.63-.879 2.204c-.574.574-1.268.861-2.083.861z"/><path id="K" d="M204.928 36.26c-1.86 0-3.456-.373-4.788-1.119-1.331-.758-2.353-1.854-3.065-3.289-.712-1.447-1.067-3.203-1.067-5.269 0-2.089.373-3.857 1.119-5.304.758-1.447 1.808-2.549 3.151-3.306 1.355-.758 2.928-1.137 4.718-1.137 1.745 0 3.221.339 4.426 1.016 1.217.666 2.141 1.659 2.772 2.979.632 1.309.947 2.916.947 4.822l-.034.878-.052.982h-12.364c.115 1.722.534 2.985 1.258 3.788.734.804 1.687 1.205 2.858 1.205 1.033 0 1.82-.224 2.359-.671s.878-.993 1.016-1.636h4.563c-.103 1.251-.493 2.336-1.171 3.254-.665.907-1.567 1.602-2.703 2.084-1.125.482-2.44.723-3.943.723zm-2.205-11.658h5.786c-.046-1.286-.361-2.262-.947-2.927-.574-.666-1.492-.999-2.755-.999-1.389 0-2.417.482-3.082 1.447-.655.953-1.011 2.296-1.068 4.029.092-.597.304-1.005.637-1.223s.809-.327 1.429-.327z"/><path id="L" d="M233.614 36.226c-1.538 0-2.847-.408-3.926-1.223-1.068-.827-1.877-1.969-2.428-3.427s-.827-3.146-.827-5.063c0-2.078.333-3.834.999-5.269s1.561-2.526 2.686-3.272 2.377-1.119 3.754-1.119c1.079 0 1.969.184 2.669.551.701.356 1.24.809 1.619 1.36s.626 1.096.74 1.636l.896.999-1.119 1.343c-.104-.367-.293-.694-.569-.982-.264-.298-.625-.534-1.085-.706-.447-.172-1.01-.258-1.687-.258-1.251 0-2.25.465-2.996 1.395s-1.12 2.399-1.12 4.408c0 1.86.35 3.283 1.051 4.27.7.976 1.664 1.464 2.893 1.464.7 0 1.297-.109 1.791-.327.505-.23.901-.494 1.188-.792.298-.31.476-.585.534-.826l.206.396-.206.895c-.104.528-.27 1.062-.5 1.601s-.539 1.033-.93 1.481c-.39.436-.884.792-1.481 1.068-.585.264-1.303.396-2.152.396zm5.08-.224l-.017-26.794h4.735v26.794h-4.718z"/></defs></svg>