<svg xmlns="http://www.w3.org/2000/svg" width="256" height="48" fill="none" xmlns:v="https://vecta.io/nano"><path d="M113.259 15.043h-11.158V5.582h11.158v9.461zM74.098 45.064h11.031V20.576H74.098v24.488zM188.44 5.796l-.147-.214h-9.395v9.461h15.858l-6.316-9.247zM62.754 15.043h33.7V5.582h-33.7v9.461zm138.923 10.132l-3.142-4.599h-19.638v24.489h11.157V25.518l13.331 19.335.147.212h9.285V5.582h-11.14v19.593zm-57.824-10.132h28.174v-9.46h-28.174v9.46zm-18.006 5.531l-23.747.002v24.489h11.158v-15.01h12.589v15.01h11.139V5.582h-11.139v14.992zM242.926 6.306l-.245-.723h-13.549l-3.073 9.109 4.612-1.949 16.09 5.069-16.09 5.069-6.453-2.729-8.405 24.915h11.965l3.279-10.461h9.699l3.279 10.461H256l-13.074-38.76zm-87.915 23.748h12.088v-9.48h-23.246v24.489h28.174v-9.459h-17.015l-.001-5.549z" fill="url(#A)"/><path d="M3.053 41.116s3.746 2.892 7.843 2.778c5.67-.16 10.979-5.081 15.477-11.754 4.011-5.95 8.231-12.669 11.29-17.656l-.948-4.975L49.037 0l-.079 15.59-4.275 2.1-9.003 14.828c-5.686 8.939-11.791 14.879-18.349 15.288a23.72 23.72 0 0 1-1.478.047c-10.048 0-12.8-6.737-12.8-6.737zm36.54-30.663l.931 4.888 4.515-9.092-5.446 4.204zM32.65 41.041c1.941-2.069 3.837-4.546 5.691-7.351.512 2.664 2.926 8.487 12.098 9.933 0 0-1.352 2.755-7.943 2.941l-.306.004c-5.329 0-8.594-3.965-9.54-5.528zM0 31.2C0 17.973 11.242 6.218 23.583 6.218c9.566 0 9.717 7.021 9.717 7.021s-1.237-2.317-8.404-2.317c-9.632 0-16.77 11.997-16.77 23.816 0 6.094 1.807 7.224 1.807 7.224S0 40.613 0 31.2z" fill="url(#B)"/><defs><linearGradient id="A" x1="256.387" y1="20.546" x2="170.88" y2="121.404" gradientUnits="userSpaceOnUse"><stop stop-color="#ed00c9"/><stop offset="1" stop-color="#bd00ed"/></linearGradient><linearGradient id="B" x1="-9.836" y1="23.927" x2="50.439" y2="23.927" gradientUnits="userSpaceOnUse"><stop stop-color="#ed00c9"/><stop offset="1" stop-color="#bd00ed"/></linearGradient></defs></svg>